<?xml version="1.0" encoding="utf-8"?>
<!-- Generator: Adobe Illustrator 16.0.0, SVG Export Plug-In . SVG Version: 6.00 Build 0)  -->
<!DOCTYPE svg PUBLIC "-//W3C//DTD SVG 1.1//EN" "http://www.w3.org/Graphics/SVG/1.1/DTD/svg11.dtd">
<svg version="1.1" id="Layer_1" xmlns="http://www.w3.org/2000/svg" xmlns:xlink="http://www.w3.org/1999/xlink" x="0px" y="0px"
	 width="116.596px" height="98.316px" viewBox="0 0 116.596 98.316" enable-background="new 0 0 116.596 98.316"
	 xml:space="preserve">
<g id="Layer_1_1_" display="none">
	<g display="inline">
		<circle fill="#03CCF4" cx="86.345" cy="86.346" r="86.345"/>
		<g>
			<polyline fill="none" stroke="#FFFFFF" stroke-width="2" stroke-miterlimit="10" points="87.376,31.622 85.179,17.635 
				93.697,20.085 85.179,9.118 94.583,7.684 			"/>
			<g>
				<circle fill="#FFFFFF" cx="63.396" cy="58.284" r="8.383"/>
				<circle fill="#FFFFFF" cx="108.396" cy="58.284" r="8.383"/>
			</g>
			<circle fill="none" stroke="#FFFFFF" stroke-width="2" stroke-miterlimit="10" cx="97.396" cy="7.284" r="3.643"/>
			<g>
				<path fill="#FFFFFF" d="M31.732,115.417v-0.974c0-0.495,0.146-0.896,0.441-1.194l5.732-5.854
					c0.154-0.182,0.313-0.271,0.469-0.271c0.187,0,0.353,0.123,0.499,0.373c0.146,0.25,0.223,0.558,0.223,0.912
					c0,0.471-0.107,0.813-0.32,1.032l-5.36,5.476l5.362,5.442c0.215,0.24,0.318,0.595,0.318,1.063c0,0.359-0.074,0.664-0.223,0.914
					c-0.146,0.25-0.313,0.375-0.499,0.375c-0.146,0-0.3-0.09-0.469-0.271l-5.734-5.837
					C31.879,116.333,31.732,115.935,31.732,115.417z"/>
				<path fill="#FFFFFF" d="M49.75,107.203l-5.91,17.291c-0.092,0.26-0.237,0.391-0.439,0.391c-0.188,0-0.365-0.109-0.529-0.336
					c-0.164-0.225-0.247-0.512-0.247-0.856c0-0.312,0.06-0.642,0.173-0.984l5.914-17.271c0.1-0.272,0.25-0.41,0.457-0.41
					c0.186,0,0.355,0.104,0.521,0.32c0.164,0.217,0.246,0.494,0.246,0.846C49.932,106.516,49.872,106.854,49.75,107.203z"/>
				<path fill="#FFFFFF" d="M58.275,124.884H56.82c-0.601,0-1.115-0.365-1.551-1.104c-0.435-0.736-0.647-1.623-0.647-2.66v-8.146
					h-0.745c-0.202,0-0.374-0.12-0.518-0.357c-0.144-0.238-0.212-0.537-0.212-0.896c0-0.352,0.069-0.646,0.212-0.891
					c0.144-0.244,0.313-0.367,0.518-0.367h0.765v-3.078c0-0.35,0.068-0.646,0.212-0.891c0.145-0.245,0.313-0.365,0.519-0.365
					c0.188,0,0.356,0.125,0.507,0.373c0.146,0.25,0.222,0.543,0.222,0.885v3.076h2.929c0.195,0,0.367,0.125,0.514,0.373
					c0.145,0.25,0.216,0.545,0.216,0.885c0,0.351-0.071,0.646-0.216,0.891c-0.146,0.244-0.314,0.366-0.514,0.366h-2.942v8.146
					c0,0.34,0.073,0.633,0.222,0.883c0.146,0.248,0.321,0.373,0.523,0.373h1.42c0.387,0,0.645-0.357,0.771-1.084
					c0.127-0.722,0.372-1.082,0.734-1.082c0.214,0,0.391,0.121,0.521,0.365c0.137,0.243,0.204,0.551,0.204,0.92
					c0,0.756-0.207,1.512-0.62,2.266C59.443,124.507,58.916,124.884,58.275,124.884z"/>
				<path fill="#FFFFFF" d="M63.88,123.628v-11.912c0-0.35,0.07-0.646,0.212-0.9c0.144-0.254,0.313-0.381,0.518-0.381
					s0.374,0.124,0.518,0.373c0.143,0.249,0.212,0.553,0.212,0.908v1.568l1.188-1.748c0.491-0.719,0.973-1.076,1.438-1.076h1.063
					c0.604,0,1.115,0.369,1.542,1.104c0.43,0.736,0.644,1.625,0.644,2.661v0.673c0,0.355-0.069,0.662-0.212,0.911
					c-0.144,0.249-0.313,0.374-0.518,0.374c-0.199,0-0.374-0.122-0.518-0.366c-0.142-0.242-0.212-0.54-0.212-0.892v-0.7
					c0-0.353-0.069-0.646-0.212-0.894c-0.145-0.244-0.313-0.364-0.519-0.364h-0.941c-0.202,0-0.43,0.188-0.676,0.556l-2.07,3.095
					v7.01c0,0.353-0.07,0.646-0.216,0.893c-0.146,0.244-0.313,0.363-0.514,0.363c-0.199,0-0.374-0.119-0.518-0.363
					C63.95,124.274,63.88,123.978,63.88,123.628z"/>
				<path fill="#FFFFFF" d="M80.469,124.854h-4.437c-0.203,0-0.374-0.122-0.519-0.366c-0.144-0.243-0.212-0.541-0.212-0.89
					c0-0.343,0.069-0.636,0.212-0.886c0.145-0.248,0.313-0.373,0.519-0.373h1.487v-9.368h-1.475c-0.2,0-0.374-0.124-0.516-0.374
					c-0.144-0.248-0.214-0.543-0.214-0.885c0-0.351,0.071-0.646,0.214-0.9c0.142-0.254,0.313-0.381,0.516-0.381h2.22
					c0.202,0,0.374,0.127,0.519,0.381c0.141,0.254,0.212,0.556,0.212,0.9v10.627h1.456c0.199,0,0.377,0.121,0.521,0.365
					c0.146,0.244,0.221,0.541,0.221,0.894c0,0.349-0.069,0.646-0.217,0.89C80.836,124.732,80.666,124.854,80.469,124.854z
					 M77.507,103.914h0.764c0.202,0,0.374,0.123,0.519,0.365c0.142,0.245,0.212,0.54,0.212,0.891v1.076
					c0,0.353-0.07,0.649-0.212,0.903c-0.145,0.254-0.313,0.382-0.519,0.382h-0.778c-0.208,0-0.385-0.13-0.524-0.39
					c-0.141-0.262-0.209-0.551-0.202-0.867l0.019-1.104c0-0.351,0.069-0.646,0.213-0.891
					C77.133,104.037,77.305,103.914,77.507,103.914z"/>
				<path fill="#FFFFFF" d="M86.802,106.275v5.904l0.643-0.885c0.404-0.576,0.822-0.863,1.259-0.863h1.334
					c0.487,0,0.928,0.287,1.31,0.863l0.692,1.031c0.188,0.289,0.348,0.7,0.471,1.239c0.125,0.537,0.188,1.063,0.188,1.584v5.082
					c0,0.458-0.061,0.938-0.175,1.449c-0.113,0.508-0.248,0.882-0.396,1.119l-0.633,1.029c-0.162,0.271-0.396,0.513-0.693,0.729
					c-0.298,0.215-0.553,0.318-0.762,0.318h-1.25c-0.604,0-1.27-0.584-1.98-1.748v0.492c0,0.353-0.071,0.646-0.215,0.892
					c-0.142,0.241-0.313,0.364-0.516,0.364s-0.374-0.123-0.518-0.364c-0.143-0.243-0.212-0.539-0.212-0.892v-17.354
					c0-0.352,0.07-0.646,0.217-0.893c0.146-0.242,0.313-0.365,0.514-0.365c0.202,0,0.374,0.123,0.517,0.365
					C86.734,105.628,86.802,105.927,86.802,106.275z M89.919,112.972h-1.004c-0.242,0-0.431,0.095-0.558,0.281l-1.31,1.931
					c-0.168,0.26-0.251,0.646-0.251,1.166v2.84c0,0.418,0.097,0.77,0.285,1.047l1.17,1.703c0.168,0.271,0.346,0.401,0.525,0.401
					h1.188c0.168,0,0.313-0.09,0.434-0.27l0.58-0.896c0.156-0.196,0.233-0.48,0.233-0.852v-5.291c0-0.42-0.077-0.738-0.233-0.957
					l-0.526-0.765C90.296,113.085,90.117,112.972,89.919,112.972z"/>
				<path fill="#FFFFFF" d="M103.357,115.184v3.032c0,0.341-0.069,0.636-0.217,0.884c-0.146,0.25-0.313,0.374-0.514,0.374H97.48
					v0.729c0,0.43,0.104,0.793,0.319,1.092l0.425,0.613c0.229,0.309,0.45,0.463,0.656,0.463h3.742c0.194,0,0.365,0.123,0.514,0.364
					c0.146,0.245,0.217,0.541,0.217,0.892c0,0.338-0.073,0.635-0.223,0.881c-0.146,0.25-0.314,0.375-0.508,0.375h-3.838
					c-0.256,0-0.521-0.092-0.804-0.274c-0.276-0.187-0.483-0.375-0.618-0.574l-0.648-0.986c-0.199-0.274-0.369-0.666-0.506-1.166
					c-0.139-0.498-0.203-0.955-0.203-1.375v-5.754c0-0.328,0.072-0.771,0.223-1.33c0.146-0.56,0.334-0.988,0.562-1.301l0.604-0.822
					c0.396-0.557,0.842-0.836,1.325-0.836h2.046c0.514,0,0.998,0.369,1.454,1.104l0.546,0.896
					C103.16,113.072,103.357,113.979,103.357,115.184z M97.501,114.99v1.941h4.418v-1.749c0-0.471-0.084-0.826-0.252-1.076
					l-0.424-0.646c-0.224-0.31-0.416-0.463-0.593-0.463h-1.825c-0.228,0-0.433,0.137-0.615,0.402l-0.424,0.611
					C97.595,114.268,97.501,114.591,97.501,114.99z"/>
				<path fill="#FFFFFF" d="M114.072,118.727v1.104c0,1.385-0.28,2.572-0.854,3.563c-0.566,0.99-1.254,1.485-2.057,1.485h-4.453
					V105.02h4.453c0.803,0,1.485,0.494,2.057,1.479c0.571,0.985,0.854,2.178,0.854,3.57v1.063c0,1.484-0.329,2.75-0.993,3.8
					C113.74,115.996,114.072,117.262,114.072,118.727z M112.582,111.104v-1.029c0-0.697-0.146-1.297-0.431-1.795
					c-0.282-0.498-0.629-0.746-1.024-0.746h-2.963v6.084h2.963c0.395,0,0.731-0.248,1.021-0.74
					C112.439,112.38,112.582,111.791,112.582,111.104z M112.582,119.832v-1.045c0-0.697-0.146-1.297-0.431-1.795
					c-0.282-0.498-0.629-0.746-1.024-0.746h-2.943v6.098h2.943c0.395,0,0.731-0.243,1.021-0.736S112.582,120.52,112.582,119.832z"/>
				<path fill="#FFFFFF" d="M124.789,114.99v5.307c0,1.125-0.31,2.166-0.922,3.123c-0.615,0.957-1.25,1.438-1.902,1.438h-1.707
					c-0.662,0-1.299-0.484-1.902-1.458c-0.604-0.975-0.91-2.004-0.91-3.104v-5.307c0-1.098,0.298-2.132,0.892-3.103
					c0.592-0.977,1.231-1.457,1.927-1.457h1.706c0.652-0.021,1.287,0.443,1.902,1.4C124.484,112.791,124.789,113.843,124.789,114.99
					z M118.916,115.093v5.082c0,0.459,0.098,0.822,0.285,1.096l0.547,0.808c0.121,0.18,0.291,0.271,0.51,0.271h1.688
					c0.248,0,0.478-0.154,0.679-0.467l0.438-0.674c0.183-0.234,0.271-0.568,0.271-1v-5.082c0-0.498-0.09-0.867-0.271-1.104
					l-0.51-0.702c-0.176-0.249-0.375-0.374-0.607-0.374h-1.506c-0.33,0-0.584,0.136-0.765,0.404l-0.493,0.729
					C119.005,114.337,118.916,114.675,118.916,115.093z"/>
				<path fill="#FFFFFF" d="M133.287,124.884h-1.455c-0.604,0-1.117-0.365-1.551-1.104c-0.437-0.736-0.65-1.623-0.65-2.66v-8.146
					h-0.742c-0.203,0-0.375-0.12-0.518-0.357c-0.144-0.238-0.213-0.537-0.213-0.896c0-0.352,0.069-0.646,0.213-0.891
					c0.143-0.244,0.313-0.367,0.518-0.367h0.762v-3.078c0-0.35,0.07-0.646,0.213-0.891c0.144-0.244,0.313-0.365,0.519-0.365
					c0.188,0,0.356,0.125,0.507,0.373c0.147,0.25,0.222,0.543,0.222,0.885v3.076h2.933c0.192,0,0.363,0.125,0.51,0.373
					c0.146,0.25,0.219,0.545,0.219,0.885c0,0.351-0.071,0.646-0.219,0.891c-0.146,0.245-0.313,0.366-0.51,0.366h-2.945v8.146
					c0,0.34,0.072,0.633,0.223,0.883c0.146,0.248,0.318,0.373,0.521,0.373h1.42c0.389,0,0.646-0.357,0.771-1.084
					c0.128-0.722,0.373-1.082,0.734-1.082c0.216,0,0.391,0.121,0.524,0.365c0.135,0.243,0.203,0.551,0.203,0.92
					c0,0.756-0.207,1.512-0.619,2.266C134.455,124.507,133.927,124.884,133.287,124.884z"/>
				<path fill="#FFFFFF" d="M146.437,114.442v0.977c0,0.508-0.143,0.908-0.422,1.199l-5.736,5.832
					c-0.168,0.178-0.323,0.268-0.479,0.268c-0.188,0-0.354-0.115-0.496-0.355c-0.146-0.237-0.223-0.543-0.223-0.911
					c0-0.479,0.106-0.826,0.326-1.048l5.354-5.479l-5.354-5.438c-0.222-0.239-0.326-0.604-0.326-1.08
					c0-0.368,0.069-0.675,0.223-0.913c0.146-0.24,0.313-0.359,0.496-0.359c0.146,0,0.305,0.092,0.479,0.271l5.736,5.849
					C146.296,113.533,146.437,113.933,146.437,114.442z"/>
			</g>
			<path fill="#FFFFFF" d="M162.523,109.55c0-7.109-6.594-13.633-17.563-18.713c-0.396-29.729-23.08-54.923-52.104-58.003
				c-0.987-2.607-3.508-4.469-6.465-4.469c-3.001,0-5.549,1.916-6.507,4.587C51.334,36.41,29.152,60.746,28.79,90.143
				C16.893,95.317,9.659,102.108,9.659,109.55c0,15.896,28.475,29.246,69.397,29.246c0.79,0,1.588-0.004,2.392-0.014
				c7.056-0.092,14.101-0.814,20.39-0.896l46.912,5.759l-0.924-16.806C157.06,121.994,162.523,116.02,162.523,109.55z
				 M108.396,45.737c6.933,0,12.547,5.617,12.547,12.547s-5.614,12.547-12.547,12.547c-6.932,0-12.547-5.617-12.547-12.547
				S101.466,45.737,108.396,45.737z M94.765,80.423c0.49-0.858,0.773-1.637,0.773-2.609c0-3.045-2.732-5.813-6.107-5.813h-6.109
				c-3.375,0-6.106,2.77-6.106,5.813c0,0.965,0.273,1.822,0.76,2.681c-1.425,0.059-2.852,0.065-4.249,0.152
				c-0.409-0.92-0.642-1.757-0.642-2.812c0-4.418,3.968-7.834,8.86-7.834h8.863c4.896,0,8.861,3.396,8.861,7.813
				c0,1.063-0.232,1.985-0.652,2.918C97.617,80.638,96.189,80.487,94.765,80.423z M97.21,83.333C95.597,84.857,93.328,86,90.808,86
				h-8.863c-2.53,0-4.813-1.149-6.427-2.688c1.666-0.086,3.354-0.059,5.049-0.104C81.396,83.645,82.33,84,83.322,84h6.109
				c0.979,0,1.9-0.351,2.723-0.773C93.855,83.273,95.544,83.244,97.21,83.333z M63.396,45.737c6.933,0,12.547,5.617,12.547,12.547
				S70.327,70.83,63.396,70.83c-6.931,0-12.546-5.617-12.546-12.547S56.467,45.737,63.396,45.737z M146.636,134.432l0.422,7.188
				l-37.713-5.838l-4.326-1.244c-4.771,0.063-9.396,0.336-13.861,0.603c-4.047,0.235-7.864,0.465-11.357,0.508
				c-0.808,0.012-1.608,0.018-2.408,0.018c-37.173,0-65.198-11.141-65.198-26.16C12.19,102.707,19.383,96,31.178,92H43.37
				c0.237,0,0.925-2.045,1.044-2.293c0.359-0.758,0.76-1.617,1.359-2.215c0.968-0.959,1.307,0.795,1.451,1.479
				c0.392,1.812,0.604,3.635,0.952,5.449c0.351,1.82,0.743,3.619,1.067,5.445c0.255,1.438,0.415,4.146,1.859-0.604
				c0.544-1.784,1.225-3.806,1.67-5.613c0.225-0.898,0.432-1.802,0.649-2.701c0.599-2.431,1.443-3.486,4.142,4.053
				c0.104,0.279,0.266,1.127,0.896,0.354l4.04-3.704c0,0,49.825,1.061,71.146,0.045c2.433-0.115,4.4,7.561,5.963-0.021
				c0.043-0.199,0.084-0.381,0.146-0.533c12.524,4.742,20.229,11.137,20.229,18.166c0,6.65-6.979,11.715-12.831,14.789l-1.452,0.779
				L146.636,134.432z"/>
		</g>
	</g>
</g>
<g id="User_-_Grey">
	<g>
		<path fill="#11FF00" d="M58.291,3.843c14.056,0,25.441,11.395,25.441,25.445c0,14.045-11.387,25.438-25.441,25.438
			c-14.05,0-25.432-11.394-25.432-25.438C32.861,15.236,44.241,3.843,58.291,3.843"/>
		<path fill="#11FF00" d="M79.075,52.5c-5.521,4.945-12.804,7.96-20.784,7.96c-7.977,0-15.257-3.015-20.771-7.96
			c-14.813,7.873-24.989,23.895-25.102,42.411h91.759C104.062,76.393,93.889,60.37,79.075,52.5z"/>
	</g>
</g>
</svg>
