<?xml version="1.0" encoding="utf-8"?>
<!-- Generator: Adobe Illustrator 16.0.0, SVG Export Plug-In . SVG Version: 6.00 Build 0)  -->
<!DOCTYPE svg PUBLIC "-//W3C//DTD SVG 1.1//EN" "http://www.w3.org/Graphics/SVG/1.1/DTD/svg11.dtd">
<svg version="1.1" id="Layer_1" xmlns="http://www.w3.org/2000/svg" xmlns:xlink="http://www.w3.org/1999/xlink" x="0px" y="0px"
	 width="80.068px" height="69.826px" viewBox="0 0 80.068 69.826" enable-background="new 0 0 80.068 69.826" xml:space="preserve">
<g id="User_-_Grey">
	<text transform="matrix(1 0 0 1 7.2732 40.002)" fill="#FFFFFF" font-family="'MyriadPro-Regular'" font-size="19.6601">chatbot</text>
	<g id="Comments">
		<path fill="#FFFFFF" d="M40.035,0c22.11,0,40.033,14.461,40.033,32.299c0,7.119-2.86,13.694-7.697,19.032l7.438,18.495
			l-31.526-6.339c-3.293,0.092-6.984,0.89-10.681,0.986c-0.419,0.01-0.837,0.017-1.251,0.017C14.916,64.49,0,49.797,0,32.299
			C0,14.461,17.923,0,40.035,0 M40.035,5.632c-19.434,0-35.243,11.899-35.243,26.527c0,15.054,13.366,26.404,31.092,26.404
			c0.381,0,0.764-0.004,1.149-0.014c1.666-0.046,3.486-0.27,5.416-0.511c2.133-0.267,4.336-0.538,6.611-0.599l1.117-0.03
			l1.095,0.219l17.604,3.539l-1.562-3.882l-2.306-5.729l4.147-4.578c2.792-3.082,6.119-8.152,6.119-14.82
			C75.278,17.531,59.467,5.632,40.035,5.632L40.035,5.632z"/>
	</g>
</g>
</svg>
