<?xml version="1.0" encoding="utf-8"?>
<!-- Generator: Adobe Illustrator 16.0.0, SVG Export Plug-In . SVG Version: 6.00 Build 0)  -->
<!DOCTYPE svg PUBLIC "-//W3C//DTD SVG 1.1//EN" "http://www.w3.org/Graphics/SVG/1.1/DTD/svg11.dtd">
<svg version="1.1" id="Layer_1" xmlns="http://www.w3.org/2000/svg" xmlns:xlink="http://www.w3.org/1999/xlink" x="0px" y="0px"
	 width="197.447px" height="101.684px" viewBox="0 0 197.447 101.684" enable-background="new 0 0 197.447 101.684"
	 xml:space="preserve">
<g>
	<path fill="#FF0000" d="M67.974,40.329c0,1.837,0.086,3.014,0.259,3.527c0.173,0.514,0.485,0.771,0.939,0.771
		c0.713,0,1.588-0.393,2.627-1.181c1.036-0.787,1.734-1.181,2.092-1.181c0.29,0,0.546,0.133,0.77,0.399
		c0.224,0.267,0.335,0.588,0.335,0.965c0,0.621-0.859,1.632-2.576,3.032s-3.231,2.1-4.544,2.1c-3.457,0-5.185-2.533-5.185-7.601
		V28.548c0-0.415-0.055-0.639-0.165-0.672c-0.109-0.033-0.722-0.05-1.838-0.05c-0.875,0-1.466-0.126-1.771-0.381
		c-0.307-0.255-0.459-0.626-0.459-1.113c0-0.421,0.115-0.72,0.345-0.897c0.229-0.178,0.678-0.359,1.345-0.545
		c0.667-0.186,1.182-0.405,1.542-0.657c0.361-0.251,0.864-0.776,1.509-1.575c0.645-0.798,1.104-1.92,1.378-3.364
		c0.273-1.443,0.41-3.521,0.41-6.235c0-1.291,0.354-1.936,1.063-1.936c0.797,0,1.295,0.181,1.493,0.542
		c0.199,0.361,0.3,0.968,0.3,1.821v10.96c0,0.438,0.284,0.656,0.854,0.656h4.659c0.94,0,1.411,0.41,1.411,1.229
		c0,0.953-0.679,1.428-2.035,1.428h-4.102c-0.307,0-0.491,0.05-0.558,0.148c-0.065,0.098-0.098,0.345-0.098,0.738V40.329z"/>
	<path fill="#FF0000" d="M87.859,31.698l0.131,0.919c0.109,0,0.624-1.039,1.543-3.118c0.918-2.078,1.829-3.554,2.729-4.43
		c0.902-0.875,1.837-1.312,2.804-1.312c0.748,0,1.314,0.132,1.699,0.397c0.384,0.264,0.577,0.562,0.577,0.893
		c0,0.574-0.132,1.032-0.396,1.374c-0.262,0.342-0.724,0.767-1.381,1.273c-2.789,2.111-4.802,4.678-6.043,7.704
		c-1.24,3.024-1.86,5.538-1.86,7.54c0,0.935,0.126,1.572,0.378,1.909c0.251,0.337,0.857,0.62,1.821,0.848
		c0.962,0.229,1.586,0.476,1.869,0.743c0.285,0.266,0.427,0.578,0.427,0.931c0,0.645-0.384,0.966-1.15,0.966
		c-0.614,0-1.465-0.098-2.55-0.295c-1.085-0.196-2.252-0.295-3.503-0.295c-0.834,0-1.678,0.1-2.533,0.295
		c-0.855,0.197-1.403,0.295-1.644,0.295c-0.615,0-1.108-0.117-1.481-0.35c-0.373-0.232-0.56-0.526-0.56-0.881
		c0-0.266,0.104-0.505,0.313-0.716c0.207-0.211,0.793-0.479,1.756-0.805c0.962-0.327,1.553-0.653,1.771-0.98
		c0.218-0.326,0.328-1.349,0.328-3.067v-9.954c0-0.63-0.148-1.196-0.443-1.697s-0.886-0.887-1.771-1.158
		c-0.886-0.272-1.411-0.508-1.575-0.708c-0.164-0.2-0.246-0.423-0.246-0.667c0-0.733,0.516-1.101,1.548-1.101
		c0.285,0,0.764,0.055,1.433,0.164c0.67,0.109,1.137,0.164,1.399,0.164c0.22,0,0.576-0.043,1.071-0.131
		c0.493-0.087,1.08-0.131,1.761-0.131c1.186,0,1.779,1.258,1.779,3.773V31.698z"/>
	<path fill="#FF0000" d="M127.704,46.498c-0.132,0.131-0.263,0.356-0.395,0.673s-0.29,0.552-0.476,0.705s-0.52,0.23-1.001,0.23
		c-0.372,0-0.957-0.093-1.755-0.28c-0.799-0.186-1.428-0.279-1.887-0.279c-0.46,0-1.099,0.093-1.92,0.279
		c-0.82,0.187-1.439,0.28-1.854,0.28c-0.504,0-0.94-0.128-1.313-0.383c-0.372-0.254-0.558-0.604-0.558-1.047
		c0-0.288,0.108-0.531,0.325-0.731c0.219-0.2,0.974-0.431,2.27-0.693c1.294-0.263,2.175-0.765,2.643-1.507
		c0.468-0.743,0.701-1.627,0.701-2.654V7.409c0-1.813-0.424-3.08-1.272-3.801c-0.479-0.415-1.245-0.699-2.3-0.852
		c-1.056-0.153-1.692-0.357-1.908-0.611c-0.219-0.255-0.327-0.561-0.327-0.915c0-0.354,0.214-0.648,0.64-0.88
		c0.428-0.233,0.837-0.35,1.23-0.35c0.438,0,1.084,0.094,1.937,0.279c0.854,0.187,1.487,0.279,1.903,0.279
		c0.394,0,0.952-0.071,1.674-0.213c0.723-0.142,1.257-0.213,1.607-0.213c0.657,0,1.138,0.181,1.444,0.542
		c0.306,0.361,0.459,1.035,0.459,2.02v38.39c0,1.357,0.836,2.566,2.505,3.627c1.669,1.062,3.247,1.591,4.732,1.591
		c1.702,0,3.504-0.721,5.402-2.166c1.898-1.443,2.849-3.839,2.849-7.186c0-2.603-0.753-4.829-2.259-6.678
		c-1.507-1.848-3.459-2.773-5.86-2.773c-0.916,0-1.86,0.252-2.831,0.755c-0.972,0.503-1.609,0.754-1.916,0.754
		c-0.262,0-0.529-0.114-0.802-0.344c-0.272-0.229-0.409-0.454-0.409-0.672c0-0.984,0.841-1.848,2.522-2.593
		c1.682-0.744,3.166-1.115,4.454-1.115c3.583,0,6.569,1.285,8.961,3.855s3.587,5.704,3.587,9.401c0,3.391-1.25,6.186-3.752,8.384
		c-2.501,2.198-5.52,3.297-9.058,3.297c-1.792,0-4.063-0.719-6.815-2.159L127.704,46.498z"/>
	<path fill="#FF0000" d="M170.887,34.75c0.503,0,0.841-0.086,1.017-0.261c0.176-0.173,0.264-0.488,0.264-0.944
		c0-1.67-0.652-3.232-1.954-4.687s-3.264-2.181-5.89-2.181c-1.816,0-3.691,0.863-5.628,2.588c-1.936,1.725-2.904,4.171-2.904,7.337
		c0,2.315,1.021,4.395,3.064,6.24c2.041,1.846,4.328,2.768,6.862,2.768c1.921,0,3.995-0.602,6.224-1.805
		c0.852-0.459,1.408-0.689,1.671-0.689c0.393,0,0.704,0.111,0.934,0.333c0.229,0.222,0.344,0.499,0.344,0.832
		c0,0.799-1.209,1.767-3.626,2.904c-2.418,1.137-4.906,1.706-7.465,1.706c-3.786,0-6.968-1.291-9.549-3.872
		c-2.582-2.581-3.872-5.655-3.872-9.22c0-3.26,1.415-6.049,4.249-8.368c2.832-2.318,6.011-3.478,9.532-3.478
		c4.572,0,7.996,1.171,10.271,3.511c2.274,2.341,3.412,5.141,3.412,8.401c0,0.7-0.175,1.132-0.524,1.295
		c-0.349,0.165-0.993,0.247-1.933,0.247h-15.035c-1.225,0-1.835-0.454-1.835-1.363c0-0.863,0.634-1.295,1.902-1.295H170.887z"/>
	<path fill="#FFFFFF" d="M7.91,36.295c0,1.371,0.471,2.763,1.414,4.175c0.943,1.412,3.355,3.503,7.237,6.272
		c7.497,5.293,12.482,9.564,14.954,12.814c2.472,3.251,3.708,6.713,3.708,10.389c0,5.21-2.019,9.263-6.056,12.155
		c-4.037,2.894-8.459,4.341-13.265,4.341c-3.406,0-6.9-0.708-10.484-2.121c-3.583-1.415-5.376-2.905-5.376-4.471
		c0-0.384,0.042-1.104,0.124-2.163c0.083-1.057,0.124-2.381,0.124-3.975c0-0.549-0.048-1.215-0.144-1.998
		C0.047,70.931,0,70.417,0,70.169c0-1.016,0.598-1.524,1.795-1.524c1.332,0,2.079,1.017,2.242,3.049
		c0.33,3.352,1.51,5.96,3.543,7.826c2.032,1.869,4.847,2.803,8.445,2.803c3.625,0,6.625-1.021,9.001-3.064
		c2.375-2.044,3.563-4.711,3.563-8.001c0-1.975-0.801-4.071-2.403-6.293c-1.603-2.221-5.8-5.745-12.591-10.571
		c-2.802-1.978-5.005-3.659-6.612-5.046c-1.607-1.386-2.953-3.028-4.038-4.923c-1.085-1.895-1.627-4.051-1.627-6.468
		c0-3.927,1.778-7.182,5.335-9.763c3.556-2.582,7.655-3.873,12.296-3.873c2.637,0,5.458,0.653,8.466,1.957
		c3.007,1.305,4.511,2.836,4.511,4.593c0,0.247-0.014,0.639-0.041,1.174c-0.028,0.536-0.042,1.325-0.042,2.369
		c0,0.274,0.055,0.81,0.165,1.606c0,1.813-0.625,2.719-1.874,2.719c-0.444,0-0.882-0.211-1.312-0.636
		c-0.431-0.423-0.646-0.882-0.646-1.375c0-2.68-0.91-4.739-2.729-6.175s-4.042-2.154-6.667-2.154c-2.981,0-5.539,0.823-7.672,2.468
		C8.976,32.511,7.91,34.32,7.91,36.295z"/>
	<path fill="#FFFFFF" d="M50.834,78.49c0,1.347,0.247,2.225,0.742,2.637c0.494,0.412,1.153,0.68,1.977,0.803
		c0.824,0.125,1.407,0.298,1.751,0.52c0.343,0.223,0.515,0.683,0.515,1.379c0,0.918-0.798,1.377-2.395,1.377
		c-0.688,0-1.721-0.082-3.097-0.247c-1.377-0.165-2.396-0.247-3.057-0.247s-1.624,0.11-2.891,0.33
		c-1.267,0.219-2.216,0.33-2.849,0.33c-0.634,0-1.177-0.182-1.632-0.543c-0.455-0.362-0.681-0.834-0.681-1.419
		c0-0.362,0.124-0.674,0.371-0.938c0.247-0.264,0.878-0.478,1.895-0.643c1.016-0.165,1.723-0.494,2.122-0.987
		c0.398-0.493,0.597-1.686,0.597-3.578V63.365c0-1.179-0.247-1.96-0.741-2.344s-1.222-0.672-2.184-0.863s-1.559-0.44-1.792-0.747
		c-0.234-0.306-0.351-0.681-0.351-1.126c0-0.5,0.2-0.91,0.599-1.23c0.4-0.319,0.875-0.48,1.427-0.48
		c0.468,0,1.137,0.104,2.005,0.309c0.868,0.207,1.508,0.31,1.922,0.31c0.468,0,1.185-0.075,2.15-0.227
		c0.964-0.15,1.681-0.227,2.149-0.227c1.02,0,1.529,0.853,1.529,2.554c0,0.275-0.014,0.639-0.041,1.092
		c-0.028,0.454-0.042,0.763-0.042,0.928V78.49z M47.478,42.733c1.257,0,2.344,0.458,3.26,1.374c0.916,0.916,1.374,2.002,1.374,3.259
		c0,1.121-0.452,2.071-1.354,2.85c-0.902,0.779-1.968,1.169-3.199,1.169c-1.231,0-2.29-0.432-3.178-1.291
		c-0.889-0.862-1.332-1.894-1.332-3.097c0-1.147,0.443-2.145,1.332-2.993C45.27,43.157,46.302,42.733,47.478,42.733z"/>
	<path fill="#FFFFFF" d="M65.707,63.406c0-1.015-0.2-1.774-0.598-2.282c-0.398-0.507-1.229-0.87-2.493-1.09
		c-1.263-0.219-1.895-0.788-1.895-1.706c0-0.391,0.221-0.771,0.661-1.147c0.441-0.376,1.02-0.564,1.737-0.564
		c0.303,0,0.833,0.096,1.591,0.288c0.759,0.192,1.386,0.288,1.882,0.288c0.303,0,0.999-0.082,2.088-0.247
		c1.088-0.165,1.771-0.247,2.047-0.247c0.551,0,0.937,0.227,1.157,0.68c0.22,0.453,0.344,1.366,0.371,2.739
		c0.056,2.28,0.083,4.71,0.083,7.292L72.091,79.15c0,0.851,0.068,1.373,0.206,1.564c0.137,0.192,0.459,0.44,0.969,0.742
		c0.507,0.302,1.158,0.535,1.956,0.7c0.796,0.165,1.304,0.394,1.524,0.686c0.219,0.293,0.329,0.634,0.329,1.024
		c0,0.92-0.715,1.379-2.147,1.379c-0.991,0-2.01-0.089-3.056-0.268c-1.047-0.179-2.079-0.268-3.098-0.268
		c-0.826,0-1.893,0.076-3.201,0.227c-1.308,0.15-2.278,0.227-2.911,0.227c-1.405,0-2.106-0.516-2.106-1.545
		c0-0.445,0.123-0.807,0.371-1.084c0.247-0.278,0.782-0.446,1.606-0.502c0.934-0.055,1.511-0.191,1.73-0.412
		c0.632-0.656,1.03-1.232,1.194-1.727c0.165-0.492,0.248-1.507,0.248-3.043V63.406z M90.958,79.231c0,1.182,0.198,1.957,0.597,2.328
		c0.398,0.37,1.113,0.673,2.143,0.906c1.03,0.234,1.544,0.672,1.544,1.314c0,0.867-0.508,1.302-1.526,1.302
		c-0.193,0-1.02-0.049-2.479-0.145c-1.461-0.098-2.686-0.145-3.676-0.145c-1.652,0-3.043,0.104-4.171,0.309
		c-1.129,0.207-1.859,0.31-2.189,0.31c-0.496,0-0.957-0.167-1.384-0.501c-0.428-0.333-0.641-0.736-0.641-1.21
		c0-0.362,0.18-0.702,0.536-1.021c0.357-0.32,0.769-0.48,1.235-0.48c0.88,0,1.661-0.253,2.348-0.761
		c0.688-0.507,1.03-1.268,1.03-2.282c0-6.605,0.041-10.696,0.125-12.272c0.081-1.575,0.123-2.461,0.123-2.653
		c0-2.137-0.982-3.206-2.946-3.206c-0.844,0-2.051,0.646-3.618,1.937c-1.566,1.291-2.678,1.936-3.332,1.936
		c-0.218,0-0.463-0.138-0.736-0.417c-0.272-0.279-0.407-0.571-0.407-0.878c0-0.977,1.26-2.453,3.78-4.431s4.986-2.966,7.397-2.966
		c1.425,0,2.658,0.364,3.698,1.092c1.042,0.728,1.734,1.641,2.076,2.738C90.829,61.134,91,62.686,91,64.69l-0.041,2.636V79.231z"/>
	<path fill="#FF0000" d="M111.927,78.49c0,1.347,0.247,2.225,0.74,2.637c0.494,0.412,1.154,0.68,1.979,0.803
		c0.823,0.125,1.406,0.298,1.751,0.52c0.343,0.223,0.515,0.683,0.515,1.379c0,0.918-0.8,1.377-2.396,1.377
		c-0.689,0-1.722-0.082-3.098-0.247c-1.377-0.165-2.396-0.247-3.057-0.247c-0.66,0-1.624,0.11-2.89,0.33
		c-1.268,0.219-2.216,0.33-2.85,0.33c-0.635,0-1.178-0.182-1.632-0.543c-0.455-0.362-0.681-0.834-0.681-1.419
		c0-0.362,0.124-0.674,0.37-0.938c0.247-0.264,0.879-0.478,1.896-0.643c1.016-0.165,1.724-0.494,2.121-0.987
		s0.598-1.686,0.598-3.578v-47.32c0-1.178-0.247-1.96-0.742-2.343c-0.494-0.384-1.223-0.672-2.184-0.864s-1.559-0.44-1.791-0.747
		c-0.234-0.306-0.35-0.681-0.35-1.127c0-0.5,0.198-0.91,0.599-1.23c0.399-0.32,0.875-0.48,1.426-0.48
		c0.468,0,1.138,0.103,2.005,0.309c0.868,0.206,1.509,0.309,1.924,0.309c0.467,0,1.185-0.075,2.148-0.227
		c0.965-0.15,1.681-0.226,2.15-0.226c1.02,0,1.529,0.852,1.529,2.554c0,0.275-0.015,0.639-0.042,1.092
		c-0.027,0.453-0.04,0.762-0.04,0.926V78.49z M108.57,9.311c1.257,0,2.344,0.458,3.26,1.374c0.916,0.916,1.374,2.002,1.374,3.259
		c0,1.121-0.451,2.071-1.354,2.85c-0.903,0.779-1.969,1.169-3.198,1.169c-1.231,0-2.29-0.431-3.179-1.292
		c-0.888-0.861-1.333-1.894-1.333-3.096c0-1.148,0.445-2.146,1.333-2.992C106.362,9.735,107.394,9.311,108.57,9.311z"/>
	<path fill="#FFFFFF" d="M126.797,63.406c0-1.015-0.199-1.774-0.597-2.282c-0.398-0.507-1.229-0.87-2.492-1.09
		c-1.264-0.219-1.896-0.788-1.896-1.706c0-0.391,0.221-0.771,0.661-1.147c0.441-0.376,1.02-0.564,1.737-0.564
		c0.304,0,0.833,0.096,1.591,0.288c0.759,0.192,1.386,0.288,1.883,0.288c0.303,0,0.998-0.082,2.088-0.247
		c1.088-0.165,1.771-0.247,2.046-0.247c0.55,0,0.938,0.227,1.157,0.68s0.344,1.366,0.372,2.739c0.056,2.28,0.082,4.71,0.082,7.292
		l-0.247,11.741c0,0.851,0.069,1.373,0.206,1.564c0.138,0.192,0.46,0.44,0.969,0.742c0.508,0.302,1.16,0.535,1.956,0.7
		s1.305,0.394,1.524,0.686c0.219,0.293,0.329,0.634,0.329,1.024c0,0.92-0.715,1.379-2.147,1.379c-0.991,0-2.01-0.089-3.057-0.268
		c-1.045-0.179-2.078-0.268-3.096-0.268c-0.828,0-1.894,0.076-3.202,0.227c-1.308,0.15-2.277,0.227-2.91,0.227
		c-1.405,0-2.106-0.516-2.106-1.545c0-0.445,0.123-0.807,0.371-1.084c0.247-0.278,0.782-0.446,1.606-0.502
		c0.933-0.055,1.509-0.191,1.729-0.412c0.632-0.656,1.03-1.232,1.195-1.727c0.165-0.492,0.246-1.507,0.246-3.043V63.406z
		 M152.05,79.231c0,1.182,0.199,1.957,0.599,2.328c0.396,0.37,1.11,0.673,2.141,0.906c1.03,0.234,1.545,0.672,1.545,1.314
		c0,0.867-0.51,1.302-1.527,1.302c-0.194,0-1.019-0.049-2.478-0.145c-1.461-0.098-2.686-0.145-3.677-0.145
		c-1.652,0-3.041,0.104-4.172,0.309c-1.129,0.207-1.857,0.31-2.188,0.31c-0.496,0-0.958-0.167-1.385-0.501
		c-0.427-0.333-0.641-0.736-0.641-1.21c0-0.362,0.179-0.702,0.536-1.021c0.356-0.32,0.769-0.48,1.236-0.48
		c0.878,0,1.662-0.253,2.348-0.761c0.686-0.507,1.03-1.268,1.03-2.282c0-6.605,0.041-10.696,0.123-12.272
		c0.082-1.575,0.124-2.461,0.124-2.653c0-2.137-0.982-3.206-2.945-3.206c-0.846,0-2.052,0.646-3.619,1.937
		c-1.567,1.291-2.677,1.936-3.332,1.936c-0.218,0-0.463-0.138-0.735-0.417s-0.409-0.571-0.409-0.878
		c0-0.977,1.261-2.453,3.781-4.431c2.521-1.978,4.987-2.966,7.398-2.966c1.424,0,2.656,0.364,3.698,1.092s1.733,1.641,2.076,2.738
		c0.342,1.1,0.513,2.651,0.513,4.656l-0.041,2.636V79.231z"/>
	<path fill="#FFFFFF" d="M188.191,73.655l0.124,0.165c2.727,1.319,4.93,3.188,6.611,5.604c1.68,2.419,2.521,5.016,2.521,7.791
		c0,4.231-1.895,7.7-5.685,10.408c-3.79,2.706-8.254,4.06-13.389,4.06c-5.273,0-9.757-1.396-13.45-4.184
		c-3.693-2.79-5.541-6.438-5.541-10.943c0-2.638,0.869-5.11,2.604-7.42c1.736-2.308,4.009-4.053,6.819-5.234l0.247-0.288
		l-0.33-0.411c-1.384-0.852-2.469-1.97-3.256-3.354c-0.788-1.387-1.181-2.902-1.181-4.549c0-2.662,1.161-4.863,3.483-6.605
		c2.322-1.743,5.27-2.835,8.844-3.273c0.439-0.054,0.755-0.273,0.947-0.656c0.575-1.311,1.543-2.752,2.902-4.323
		c1.358-1.571,2.586-2.514,3.684-2.828c1.099-0.314,2.979-0.472,5.641-0.472c1.563,0,2.347,0.805,2.347,2.413
		c0,0.955-0.386,1.726-1.156,2.311c-0.771,0.586-1.759,0.88-2.971,0.88c-0.275,0-0.619-0.042-1.032-0.124
		c-0.411-0.082-0.755-0.124-1.03-0.124c-1.348,0-2.476,0.371-3.384,1.112c-0.907,0.741-1.36,1.236-1.36,1.482
		c0,0.276,0.179,0.412,0.536,0.412c3.3,0.413,5.927,1.552,7.879,3.417c1.953,1.866,2.93,4.212,2.93,7.038
		c0,2.991-1.354,5.434-4.063,7.326L188.191,73.655z M178.292,98.182c3.558,0,6.548-1.029,8.97-3.086
		c2.424-2.059,3.634-4.747,3.634-8.066c0-3.347-1.183-6.008-3.551-7.983c-2.368-1.975-5.358-2.962-8.972-2.962
		c-3.941,0-7,0.994-9.176,2.982c-2.178,1.989-3.265,4.698-3.265,8.128c0,3.292,1.285,5.946,3.859,7.962
		C172.366,97.173,175.199,98.182,178.292,98.182z M178.703,72.873c2.131,0,3.94-0.733,5.429-2.201
		c1.49-1.468,2.234-3.231,2.234-5.288c0-1.126-0.355-2.229-1.065-3.313c-0.711-1.083-1.633-1.892-2.766-2.427
		c-1.135-0.535-1.892-0.804-2.274-0.804c-0.191,0-0.315,0.124-0.369,0.371c-0.328,1.264-1.025,1.895-2.09,1.895
		c-0.957,0-1.435-0.535-1.435-1.606c0-0.302-0.123-0.452-0.368-0.452c-0.383,0-1.032,0.239-1.947,0.72
		c-0.914,0.479-1.694,1.275-2.335,2.387c-0.643,1.11-0.964,2.353-0.964,3.725c0,1.947,0.807,3.601,2.418,4.958
		C174.783,72.194,176.626,72.873,178.703,72.873z"/>
	<path fill="#FF0000" d="M172.695,51.04c0-0.601-0.801-1.206-1.88-1.206h-52.289c-1.08,0-1.831,0.605-1.831,1.206v0.059
		c0,0.6,0.751,1.735,1.831,1.735h52.289c1.079,0,1.88-1.136,1.88-1.735V51.04z"/>
</g>
</svg>
