<?xml version="1.0" encoding="utf-8"?>
<!-- Generator: Adobe Illustrator 16.0.0, SVG Export Plug-In . SVG Version: 6.00 Build 0)  -->
<!DOCTYPE svg PUBLIC "-//W3C//DTD SVG 1.1//EN" "http://www.w3.org/Graphics/SVG/1.1/DTD/svg11.dtd">
<svg version="1.1" id="Layer_1" xmlns="http://www.w3.org/2000/svg" xmlns:xlink="http://www.w3.org/1999/xlink" x="0px" y="0px"
	 width="254.48px" height="46.525px" viewBox="0 0 254.48 46.525" enable-background="new 0 0 254.48 46.525" xml:space="preserve">
<g>
	<path fill="#FFFFFF" d="M1.867,25.451v-2.089c0-1.068,0.322-1.925,0.969-2.569L15.367,8.208c0.341-0.384,0.683-0.577,1.025-0.577
		c0.403,0,0.766,0.266,1.088,0.803c0.321,0.538,0.482,1.19,0.482,1.961c0,1.01-0.235,1.75-0.7,2.222L5.539,24.386l11.729,11.702
		c0.465,0.517,0.696,1.277,0.696,2.286c0,0.773-0.162,1.429-0.482,1.966c-0.322,0.536-0.686,0.805-1.088,0.805
		c-0.316,0-0.658-0.195-1.025-0.579L2.831,28.018C2.188,27.419,1.867,26.563,1.867,25.451z"/>
	<path fill="#FFFFFF" d="M41.256,7.792L28.338,44.963c-0.203,0.558-0.525,0.84-0.965,0.84c-0.418,0-0.805-0.244-1.166-0.725
		c-0.358-0.48-0.538-1.098-0.538-1.848c0-0.662,0.126-1.37,0.38-2.119L38.976,3.98c0.213-0.588,0.547-0.882,0.999-0.882
		c0.404,0,0.784,0.231,1.142,0.693c0.356,0.461,0.536,1.066,0.536,1.814C41.653,6.315,41.521,7.041,41.256,7.792z"/>
	<path fill="#FFFFFF" d="M59.89,45.803h-3.181c-1.315,0-2.442-0.793-3.39-2.379c-0.948-1.584-1.422-3.49-1.422-5.719V20.193h-1.626
		c-0.444,0-0.82-0.257-1.127-0.77c-0.31-0.514-0.465-1.156-0.465-1.927c0-0.752,0.155-1.388,0.465-1.913
		c0.307-0.525,0.683-0.787,1.127-0.787h1.666v-6.62c0-0.75,0.153-1.387,0.465-1.912c0.308-0.524,0.684-0.785,1.127-0.785
		c0.414,0,0.786,0.266,1.105,0.801c0.322,0.536,0.482,1.168,0.482,1.896v6.62h6.402c0.429,0,0.801,0.269,1.116,0.802
		c0.316,0.537,0.474,1.169,0.474,1.898c0,0.75-0.158,1.385-0.474,1.911c-0.315,0.524-0.687,0.786-1.116,0.786h-6.438v17.513
		c0,0.73,0.16,1.358,0.482,1.896c0.322,0.534,0.702,0.803,1.146,0.803h3.104c0.845,0,1.409-0.775,1.687-2.33
		c0.277-1.552,0.815-2.327,1.609-2.327c0.468,0,0.85,0.261,1.146,0.787c0.297,0.524,0.447,1.183,0.447,1.974
		c0,1.628-0.453,3.254-1.356,4.87C62.443,44.994,61.291,45.803,59.89,45.803z"/>
	<path fill="#FFFFFF" d="M72.144,43.105V17.496c0-0.752,0.154-1.398,0.461-1.944c0.312-0.546,0.688-0.819,1.127-0.819
		c0.445,0,0.817,0.267,1.127,0.803c0.31,0.535,0.465,1.188,0.465,1.96v3.372l2.594-3.759c1.074-1.542,2.12-2.313,3.145-2.313h2.327
		c1.315,0,2.438,0.793,3.373,2.376c0.933,1.587,1.401,3.494,1.401,5.721v1.446c0,0.771-0.154,1.423-0.466,1.959
		c-0.307,0.536-0.683,0.804-1.125,0.804s-0.818-0.263-1.127-0.787c-0.31-0.525-0.463-1.161-0.463-1.913v-1.509
		c0-0.75-0.156-1.388-0.465-1.913c-0.307-0.524-0.683-0.788-1.127-0.788h-2.062c-0.444,0-0.935,0.397-1.478,1.19l-4.525,6.651v15.07
		c0,0.749-0.158,1.385-0.474,1.909s-0.688,0.789-1.119,0.789c-0.439,0-0.815-0.265-1.127-0.789
		C72.298,44.49,72.144,43.854,72.144,43.105z"/>
	<path fill="#FFFFFF" d="M108.407,45.739h-9.694c-0.444,0-0.819-0.263-1.127-0.787c-0.312-0.526-0.465-1.164-0.465-1.913
		c0-0.729,0.154-1.359,0.465-1.895c0.308-0.534,0.683-0.803,1.127-0.803h3.255V20.193H98.75c-0.441,0-0.817-0.266-1.125-0.803
		c-0.312-0.534-0.465-1.167-0.465-1.894c0-0.752,0.153-1.398,0.465-1.944c0.307-0.546,0.683-0.819,1.125-0.819h4.848
		c0.442,0,0.818,0.272,1.128,0.819c0.307,0.546,0.463,1.192,0.463,1.944v22.845h3.183c0.439,0,0.824,0.26,1.145,0.785
		c0.322,0.524,0.482,1.162,0.482,1.912c0,0.749-0.158,1.387-0.474,1.913C109.208,45.476,108.837,45.739,108.407,45.739z
		 M101.933,0.722h1.665c0.442,0,0.818,0.263,1.128,0.787c0.307,0.527,0.463,1.161,0.463,1.913v2.313c0,0.75-0.156,1.399-0.463,1.945
		c-0.31,0.545-0.686,0.818-1.128,0.818h-1.703c-0.457,0-0.837-0.277-1.146-0.835c-0.31-0.557-0.459-1.178-0.446-1.864l0.039-2.377
		c0-0.751,0.154-1.385,0.466-1.913C101.113,0.985,101.488,0.722,101.933,0.722z"/>
	<path fill="#FFFFFF" d="M122.251,5.798v12.692l1.4-1.896c0.884-1.24,1.797-1.862,2.745-1.862h2.916
		c1.072,0,2.029,0.622,2.861,1.862l1.516,2.217c0.414,0.621,0.76,1.509,1.029,2.667c0.273,1.155,0.41,2.293,0.41,3.406v10.925
		c0,0.983-0.127,2.022-0.38,3.115c-0.251,1.092-0.542,1.896-0.871,2.41l-1.383,2.217c-0.354,0.579-0.858,1.098-1.516,1.558
		c-0.653,0.462-1.208,0.692-1.666,0.692h-2.728c-1.323,0-2.769-1.255-4.334-3.761v1.063c0,0.749-0.155,1.385-0.465,1.909
		s-0.684,0.789-1.128,0.789c-0.439,0-0.815-0.265-1.126-0.789c-0.307-0.524-0.463-1.16-0.463-1.909V5.798
		c0-0.748,0.158-1.385,0.474-1.911c0.316-0.525,0.69-0.789,1.116-0.789c0.444,0,0.818,0.264,1.128,0.789
		C122.096,4.413,122.251,5.051,122.251,5.798z M129.065,20.193h-2.195c-0.529,0-0.935,0.205-1.212,0.611l-2.858,4.145
		c-0.367,0.559-0.549,1.394-0.549,2.506v6.105c0,0.899,0.207,1.65,0.624,2.251l2.558,3.662c0.367,0.579,0.751,0.868,1.152,0.868
		h2.596c0.367,0,0.683-0.193,0.948-0.579l1.268-1.929c0.342-0.428,0.513-1.039,0.513-1.83V24.629c0-0.902-0.171-1.587-0.513-2.057
		l-1.157-1.64C129.889,20.439,129.497,20.193,129.065,20.193z"/>
	<path fill="#FFFFFF" d="M158.439,24.949v6.525c0,0.726-0.158,1.36-0.474,1.893c-0.314,0.538-0.687,0.805-1.119,0.805h-11.245v1.575
		c0,0.922,0.231,1.701,0.7,2.345l0.927,1.317c0.503,0.664,0.986,0.995,1.438,0.995h8.18c0.433,0,0.805,0.265,1.119,0.787
		c0.315,0.526,0.474,1.164,0.474,1.914c0,0.727-0.162,1.358-0.481,1.894c-0.325,0.536-0.692,0.805-1.111,0.805h-8.389
		c-0.555,0-1.136-0.196-1.751-0.596c-0.611-0.394-1.063-0.807-1.354-1.236l-1.421-2.121c-0.44-0.599-0.812-1.433-1.105-2.506
		c-0.3-1.071-0.445-2.056-0.445-2.956V24.016c0-0.705,0.158-1.658,0.483-2.859c0.319-1.199,0.729-2.131,1.22-2.794l1.324-1.768
		c0.872-1.199,1.84-1.799,2.899-1.799h4.47c1.123,0,2.182,0.793,3.181,2.376l1.191,1.93
		C158.009,20.41,158.439,22.358,158.439,24.949z M145.641,24.533v4.176h9.656v-3.76c0-1.006-0.183-1.776-0.551-2.313l-0.925-1.381
		c-0.483-0.664-0.911-0.996-1.289-0.996h-3.998c-0.491,0-0.938,0.29-1.345,0.868l-0.926,1.316
		C145.845,22.98,145.641,23.676,145.641,24.533z"/>
	<path fill="#FFFFFF" d="M181.862,32.564v2.377c0,2.978-0.618,5.535-1.864,7.664c-1.244,2.133-2.742,3.198-4.497,3.198h-9.734V3.099
		h9.734c1.755,0,3.253,1.062,4.497,3.182c1.246,2.121,1.864,4.682,1.864,7.68v2.279c0,3.193-0.726,5.915-2.177,8.163
		C181.137,26.695,181.862,29.417,181.862,32.564z M178.605,16.177v-2.216c0-1.499-0.312-2.784-0.936-3.855
		c-0.624-1.072-1.375-1.608-2.245-1.608h-6.478v13.08h6.478c0.857,0,1.605-0.532,2.236-1.592
		C178.294,18.923,178.605,17.655,178.605,16.177z M178.605,34.941v-2.248c0-1.499-0.312-2.786-0.936-3.857
		c-0.624-1.07-1.375-1.606-2.245-1.606h-6.439v13.111h6.439c0.857,0,1.605-0.531,2.236-1.592
		C178.294,37.69,178.605,36.42,178.605,34.941z"/>
	<path fill="#FFFFFF" d="M205.29,24.533v11.406c0,2.421-0.671,4.658-2.015,6.715c-1.346,2.056-2.732,3.085-4.159,3.085h-3.731
		c-1.452,0-2.839-1.045-4.163-3.134c-1.327-2.088-1.99-4.31-1.99-6.666V24.533c0-2.357,0.646-4.581,1.943-6.667
		c1.293-2.091,2.698-3.132,4.21-3.132h3.731c1.427-0.044,2.813,0.961,4.159,3.019C204.619,19.809,205.29,22.068,205.29,24.533z
		 M192.451,24.755V35.68c0,0.988,0.21,1.768,0.624,2.347l1.195,1.735c0.265,0.386,0.636,0.579,1.114,0.579h3.693
		c0.542,0,1.037-0.331,1.477-0.997l0.965-1.446c0.394-0.513,0.589-1.229,0.589-2.151V24.82c0-1.07-0.195-1.862-0.589-2.378
		l-1.114-1.51c-0.38-0.535-0.819-0.804-1.327-0.804h-3.292c-0.722,0-1.277,0.29-1.67,0.869l-1.08,1.574
		C192.648,23.128,192.451,23.857,192.451,24.755z"/>
	<path fill="#FFFFFF" d="M223.867,45.803h-3.182c-1.314,0-2.442-0.793-3.39-2.379c-0.948-1.584-1.423-3.49-1.423-5.719V20.193
		h-1.625c-0.445,0-0.82-0.257-1.128-0.77c-0.308-0.514-0.466-1.156-0.466-1.927c0-0.752,0.158-1.388,0.466-1.913
		c0.308-0.525,0.683-0.787,1.128-0.787h1.664v-6.62c0-0.75,0.153-1.387,0.466-1.912c0.307-0.524,0.683-0.785,1.127-0.785
		c0.415,0,0.786,0.266,1.106,0.801c0.324,0.536,0.482,1.168,0.482,1.896v6.62h6.404c0.426,0,0.798,0.269,1.114,0.802
		c0.315,0.537,0.474,1.169,0.474,1.898c0,0.75-0.158,1.385-0.474,1.911c-0.316,0.524-0.688,0.786-1.114,0.786h-6.438v17.513
		c0,0.73,0.158,1.358,0.481,1.896c0.321,0.534,0.701,0.803,1.145,0.803h3.104c0.845,0,1.409-0.775,1.687-2.33
		c0.277-1.552,0.815-2.327,1.609-2.327c0.47,0,0.85,0.261,1.148,0.787c0.294,0.524,0.444,1.183,0.444,1.974
		c0,1.628-0.453,3.254-1.354,4.87C226.419,44.994,225.268,45.803,223.867,45.803z"/>
	<path fill="#FFFFFF" d="M252.613,23.355v2.095c0,1.094-0.308,1.954-0.922,2.578l-12.539,12.537
		c-0.367,0.384-0.713,0.579-1.042,0.579c-0.406,0-0.77-0.258-1.089-0.774c-0.325-0.511-0.483-1.166-0.483-1.961
		c0-1.027,0.24-1.776,0.713-2.25l11.708-11.773l-11.708-11.693c-0.478-0.517-0.713-1.292-0.713-2.322
		c0-0.796,0.158-1.451,0.483-1.965c0.319-0.516,0.683-0.774,1.089-0.774c0.314,0,0.661,0.193,1.042,0.577l12.539,12.568
		C252.306,21.4,252.613,22.26,252.613,23.355z"/>
</g>
</svg>
