<?xml version="1.0" encoding="utf-8"?>
<!-- Generator: Adobe Illustrator 16.0.0, SVG Export Plug-In . SVG Version: 6.00 Build 0)  -->
<!DOCTYPE svg PUBLIC "-//W3C//DTD SVG 1.1//EN" "http://www.w3.org/Graphics/SVG/1.1/DTD/svg11.dtd">
<svg version="1.1" id="Layer_1" xmlns="http://www.w3.org/2000/svg" xmlns:xlink="http://www.w3.org/1999/xlink" x="0px" y="0px"
	 width="10px" height="9.223px" viewBox="5.919 5.427 10 9.223" enable-background="new 5.919 5.427 10 9.223" xml:space="preserve"
	>
<g id="Layer_1_1_" display="none">
	<g display="inline">
		<circle fill="#03CCF4" cx="86.345" cy="86.346" r="86.345"/>
		<g>
			<polyline fill="none" stroke="#FFFFFF" stroke-width="2" stroke-miterlimit="10" points="87.375,31.622 85.179,17.635 
				93.696,20.085 85.179,9.118 94.583,7.684 			"/>
			<g>
				<circle fill="#FFFFFF" cx="63.396" cy="58.284" r="8.383"/>
				<circle fill="#FFFFFF" cx="108.396" cy="58.284" r="8.383"/>
			</g>
			<circle fill="none" stroke="#FFFFFF" stroke-width="2" stroke-miterlimit="10" cx="97.396" cy="7.284" r="3.643"/>
			<g>
				<path fill="#FFFFFF" d="M31.731,115.417v-0.974c0-0.495,0.146-0.896,0.442-1.194l5.733-5.854c0.156-0.18,0.313-0.27,0.468-0.27
					c0.187,0,0.353,0.123,0.499,0.373s0.223,0.556,0.223,0.912c0,0.471-0.107,0.813-0.32,1.032l-5.363,5.476l5.365,5.442
					c0.212,0.24,0.318,0.595,0.318,1.063c0,0.359-0.074,0.664-0.223,0.914c-0.146,0.25-0.313,0.375-0.499,0.375
					c-0.144,0-0.3-0.09-0.468-0.271l-5.735-5.837C31.879,116.333,31.731,115.935,31.731,115.417z"/>
				<path fill="#FFFFFF" d="M49.75,107.203l-5.91,17.291c-0.092,0.26-0.237,0.391-0.44,0.391c-0.189,0-0.367-0.111-0.531-0.336
					s-0.247-0.512-0.247-0.858c0-0.31,0.06-0.64,0.173-0.984l5.914-17.271c0.1-0.272,0.25-0.41,0.457-0.41
					c0.186,0,0.357,0.105,0.521,0.32c0.164,0.217,0.246,0.496,0.246,0.846C49.933,106.516,49.872,106.854,49.75,107.203z"/>
				<path fill="#FFFFFF" d="M58.274,124.884h-1.455c-0.601,0-1.117-0.367-1.551-1.104c-0.434-0.738-0.649-1.625-0.649-2.662v-8.146
					h-0.745c-0.202,0-0.374-0.12-0.516-0.357c-0.143-0.238-0.211-0.537-0.211-0.896c0-0.35,0.069-0.645,0.211-0.889
					s0.313-0.367,0.516-0.367h0.764v-3.078c0-0.35,0.069-0.646,0.213-0.891c0.142-0.244,0.313-0.365,0.516-0.365
					c0.189,0,0.359,0.125,0.507,0.373c0.147,0.25,0.221,0.543,0.221,0.883v3.078h2.929c0.195,0,0.367,0.125,0.512,0.373
					c0.145,0.25,0.216,0.545,0.216,0.883c0,0.351-0.071,0.646-0.216,0.891s-0.314,0.366-0.512,0.366h-2.944v8.146
					c0,0.34,0.073,0.633,0.221,0.883c0.147,0.248,0.322,0.373,0.524,0.373h1.42c0.387,0,0.645-0.359,0.771-1.084
					c0.127-0.723,0.371-1.082,0.734-1.082c0.214,0,0.391,0.121,0.523,0.365c0.135,0.243,0.205,0.551,0.205,0.92
					c0,0.756-0.207,1.512-0.621,2.264C59.442,124.507,58.916,124.884,58.274,124.884z"/>
				<path fill="#FFFFFF" d="M63.88,123.628v-11.912c0-0.35,0.07-0.648,0.212-0.902c0.144-0.254,0.313-0.381,0.517-0.381
					c0.205,0,0.375,0.124,0.516,0.373c0.143,0.249,0.212,0.553,0.212,0.91v1.568l1.188-1.748c0.49-0.719,0.97-1.076,1.438-1.076
					h1.064c0.602,0,1.115,0.369,1.543,1.104c0.427,0.738,0.641,1.625,0.641,2.661v0.673c0,0.357-0.07,0.662-0.212,0.911
					s-0.313,0.374-0.515,0.374c-0.202,0-0.375-0.122-0.518-0.366c-0.142-0.242-0.212-0.54-0.212-0.89v-0.702
					c0-0.351-0.069-0.646-0.212-0.892c-0.143-0.244-0.313-0.364-0.516-0.364h-0.944c-0.202,0-0.427,0.186-0.676,0.554l-2.07,3.095
					v7.01c0,0.351-0.071,0.646-0.216,0.891s-0.314,0.365-0.512,0.365c-0.201,0-0.373-0.121-0.517-0.365
					C63.95,124.274,63.88,123.978,63.88,123.628z"/>
				<path fill="#FFFFFF" d="M80.469,124.854h-4.436c-0.203,0-0.374-0.122-0.517-0.366c-0.143-0.243-0.211-0.54-0.211-0.89
					c0-0.341,0.069-0.634,0.211-0.884c0.143-0.248,0.313-0.373,0.517-0.373h1.489v-9.37h-1.474c-0.2,0-0.374-0.124-0.515-0.374
					c-0.143-0.248-0.213-0.543-0.213-0.883c0-0.35,0.072-0.648,0.213-0.902s0.313-0.381,0.515-0.381h2.22
					c0.201,0,0.373,0.127,0.516,0.381c0.141,0.254,0.213,0.556,0.213,0.902v10.627h1.455c0.201,0,0.377,0.121,0.523,0.365
					s0.221,0.541,0.221,0.892c0,0.349-0.07,0.646-0.217,0.89C80.836,124.732,80.667,124.854,80.469,124.854z M77.506,103.914h0.765
					c0.201,0,0.373,0.123,0.516,0.367c0.141,0.243,0.213,0.538,0.213,0.889v1.076c0,0.351-0.072,0.649-0.213,0.903
					c-0.143,0.254-0.313,0.382-0.516,0.382h-0.779c-0.209,0-0.383-0.13-0.525-0.39c-0.141-0.26-0.208-0.549-0.201-0.867l0.016-1.104
					c0-0.351,0.072-0.646,0.214-0.891C77.133,104.037,77.306,103.914,77.506,103.914z"/>
				<path fill="#FFFFFF" d="M86.801,106.275v5.904l0.644-0.883c0.404-0.576,0.822-0.865,1.256-0.865h1.334
					c0.49,0,0.928,0.289,1.309,0.865l0.693,1.031c0.189,0.289,0.348,0.7,0.471,1.239c0.125,0.537,0.188,1.064,0.188,1.584v5.082
					c0,0.458-0.06,0.939-0.174,1.449c-0.113,0.508-0.248,0.882-0.396,1.121l-0.633,1.029c-0.162,0.271-0.395,0.513-0.693,0.727
					c-0.299,0.215-0.553,0.32-0.762,0.32h-1.248c-0.604,0-1.268-0.584-1.98-1.748v0.492c0,0.351-0.072,0.646-0.215,0.891
					c-0.143,0.242-0.313,0.365-0.516,0.365s-0.375-0.123-0.516-0.365c-0.144-0.244-0.213-0.54-0.213-0.891v-17.354
					c0-0.35,0.071-0.646,0.217-0.891c0.146-0.242,0.313-0.365,0.512-0.365c0.203,0,0.375,0.123,0.516,0.365
					C86.733,105.628,86.801,105.927,86.801,106.275z M89.918,112.972h-1.004c-0.242,0-0.429,0.095-0.556,0.283l-1.309,1.929
					c-0.168,0.26-0.252,0.647-0.252,1.166v2.84c0,0.418,0.098,0.77,0.285,1.047l1.17,1.703c0.168,0.271,0.346,0.403,0.527,0.403
					h1.188c0.168,0,0.313-0.09,0.434-0.27l0.58-0.896c0.156-0.198,0.233-0.482,0.233-0.852v-5.291c0-0.42-0.077-0.738-0.233-0.957
					l-0.527-0.765C90.295,113.085,90.118,112.972,89.918,112.972z"/>
				<path fill="#FFFFFF" d="M103.356,115.184v3.034c0,0.339-0.07,0.634-0.217,0.882c-0.146,0.25-0.313,0.374-0.513,0.374h-5.146
					v0.73c0,0.43,0.104,0.793,0.318,1.092l0.426,0.613c0.229,0.309,0.449,0.463,0.656,0.463h3.742c0.195,0,0.367,0.123,0.514,0.364
					c0.146,0.245,0.217,0.541,0.217,0.892c0,0.338-0.073,0.634-0.223,0.881c-0.146,0.25-0.314,0.375-0.508,0.375h-3.838
					c-0.254,0-0.521-0.092-0.803-0.276c-0.277-0.185-0.484-0.375-0.617-0.574l-0.65-0.986c-0.199-0.276-0.369-0.666-0.506-1.166
					c-0.137-0.498-0.203-0.955-0.203-1.375v-5.754c0-0.328,0.072-0.771,0.223-1.33c0.146-0.56,0.334-0.99,0.56-1.301l0.604-0.822
					c0.396-0.557,0.842-0.836,1.325-0.836h2.046c0.514,0,0.998,0.369,1.454,1.104l0.546,0.896
					C103.161,113.073,103.356,113.979,103.356,115.184z M97.5,114.99v1.941h4.418v-1.749c0-0.469-0.084-0.826-0.252-1.076
					l-0.424-0.645c-0.222-0.31-0.416-0.463-0.591-0.463h-1.827c-0.226,0-0.431,0.137-0.615,0.402l-0.424,0.612
					C97.595,114.268,97.5,114.591,97.5,114.99z"/>
				<path fill="#FFFFFF" d="M114.071,118.727v1.104c0,1.385-0.281,2.572-0.854,3.563c-0.566,0.991-1.254,1.487-2.057,1.487h-4.453
					V105.02h4.453c0.803,0,1.488,0.494,2.057,1.479c0.57,0.984,0.854,2.178,0.854,3.57v1.063c0,1.484-0.33,2.75-0.994,3.798
					C113.741,115.996,114.071,117.262,114.071,118.727z M112.583,111.104v-1.029c0-0.697-0.145-1.297-0.43-1.793
					c-0.283-0.5-0.629-0.748-1.025-0.748h-2.963v6.084h2.963c0.395,0,0.732-0.248,1.021-0.74
					C112.438,112.38,112.583,111.791,112.583,111.104z M112.583,119.832v-1.045c0-0.697-0.145-1.297-0.43-1.795
					c-0.283-0.498-0.629-0.746-1.025-0.746h-2.943v6.098h2.943c0.395,0,0.732-0.245,1.021-0.738
					C112.438,121.114,112.583,120.52,112.583,119.832z"/>
				<path fill="#FFFFFF" d="M124.79,114.99v5.307c0,1.125-0.309,2.166-0.922,3.123c-0.615,0.957-1.25,1.437-1.902,1.437h-1.707
					c-0.662,0-1.299-0.484-1.902-1.458c-0.606-0.973-0.91-2.004-0.91-3.102v-5.307c0-1.098,0.296-2.132,0.89-3.103
					c0.593-0.975,1.233-1.457,1.927-1.457h1.706c0.652-0.021,1.287,0.445,1.902,1.402C124.483,112.791,124.79,113.843,124.79,114.99
					z M118.917,115.093v5.082c0,0.459,0.098,0.822,0.285,1.094l0.547,0.808c0.121,0.18,0.291,0.271,0.51,0.271h1.688
					c0.248,0,0.477-0.154,0.678-0.465l0.439-0.674c0.182-0.236,0.271-0.57,0.271-1v-5.082c0-0.498-0.09-0.867-0.271-1.105
					l-0.51-0.702c-0.175-0.249-0.375-0.374-0.607-0.374h-1.506c-0.33,0-0.584,0.136-0.765,0.404l-0.493,0.73
					C119.004,114.337,118.917,114.675,118.917,115.093z"/>
				<path fill="#FFFFFF" d="M133.288,124.884h-1.455c-0.604,0-1.117-0.367-1.551-1.104c-0.436-0.738-0.65-1.625-0.65-2.662v-8.146
					h-0.742c-0.203,0-0.375-0.12-0.518-0.357c-0.143-0.238-0.213-0.537-0.213-0.896c0-0.35,0.07-0.645,0.213-0.889
					s0.313-0.367,0.518-0.367h0.762v-3.078c0-0.35,0.07-0.646,0.213-0.891c0.142-0.244,0.313-0.365,0.517-0.365
					c0.188,0,0.358,0.125,0.507,0.373c0.147,0.25,0.221,0.543,0.221,0.883v3.078h2.932c0.193,0,0.363,0.125,0.51,0.373
					c0.146,0.25,0.219,0.545,0.219,0.883c0,0.351-0.072,0.646-0.219,0.891c-0.146,0.245-0.313,0.366-0.51,0.366h-2.945v8.146
					c0,0.34,0.072,0.633,0.223,0.883c0.146,0.248,0.318,0.373,0.521,0.373h1.42c0.389,0,0.646-0.359,0.771-1.084
					c0.127-0.723,0.373-1.082,0.734-1.082c0.217,0,0.391,0.121,0.525,0.365c0.135,0.243,0.203,0.551,0.203,0.92
					c0,0.756-0.207,1.512-0.619,2.264C134.456,124.507,133.926,124.884,133.288,124.884z"/>
				<path fill="#FFFFFF" d="M146.437,114.442v0.977c0,0.508-0.142,0.908-0.422,1.199l-5.736,5.832
					c-0.168,0.178-0.324,0.268-0.478,0.268c-0.186,0-0.352-0.117-0.497-0.357c-0.146-0.237-0.222-0.543-0.222-0.911
					c0-0.479,0.108-0.826,0.326-1.048l5.354-5.479l-5.354-5.438c-0.22-0.239-0.326-0.602-0.326-1.08
					c0-0.368,0.071-0.675,0.222-0.913c0.146-0.24,0.313-0.359,0.497-0.359c0.146,0,0.304,0.09,0.478,0.27l5.736,5.849
					C146.295,113.533,146.437,113.933,146.437,114.442z"/>
			</g>
			<path fill="#FFFFFF" d="M162.522,109.55c0-7.111-6.594-13.633-17.562-18.713c-0.396-29.729-23.08-54.923-52.103-58.003
				c-0.989-2.609-3.508-4.469-6.465-4.469c-3.002,0-5.549,1.916-6.508,4.587C51.334,36.41,29.151,60.746,28.79,90.143
				C16.894,95.317,9.659,102.108,9.659,109.55c0,15.896,28.475,29.246,69.4,29.246c0.789,0,1.588-0.004,2.389-0.014
				c7.057-0.092,14.102-0.814,20.391-0.896l46.912,5.757l-0.924-16.804C157.06,121.994,162.522,116.02,162.522,109.55z
				 M108.396,45.737c6.932,0,12.547,5.617,12.547,12.547s-5.615,12.547-12.547,12.547c-6.931,0-12.547-5.617-12.547-12.547
				S101.465,45.737,108.396,45.737z M94.765,80.423c0.491-0.86,0.774-1.637,0.774-2.611c0-3.045-2.733-5.813-6.108-5.813h-6.109
				c-3.375,0-6.107,2.768-6.107,5.813c0,0.965,0.275,1.824,0.76,2.681c-1.425,0.059-2.852,0.065-4.25,0.152
				c-0.408-0.92-0.641-1.757-0.641-2.81c0-4.418,3.967-7.834,8.863-7.834h8.863c4.896,0,8.861,3.394,8.861,7.812
				c0,1.065-0.232,1.987-0.652,2.918C97.618,80.638,96.188,80.487,94.765,80.423z M97.209,83.333C95.597,84.857,93.329,86,90.808,86
				h-8.863c-2.531,0-4.813-1.151-6.426-2.689c1.666-0.086,3.352-0.057,5.049-0.104C81.396,83.645,82.331,84,83.321,84h6.109
				c0.979,0,1.901-0.351,2.723-0.775C93.854,83.273,95.543,83.244,97.209,83.333z M63.396,45.737
				c6.931,0,12.547,5.617,12.547,12.547S70.326,70.83,63.396,70.83c-6.93,0-12.545-5.617-12.545-12.547S56.467,45.737,63.396,45.737
				z M146.635,134.432l0.423,7.188l-37.713-5.838l-4.326-1.244c-4.771,0.063-9.396,0.336-13.861,0.601
				c-4.047,0.237-7.865,0.465-11.359,0.508c-0.807,0.012-1.607,0.018-2.408,0.018c-37.172,0-65.197-11.141-65.197-26.16
				C12.19,102.707,19.383,96,31.179,92H43.37c0.24,0,0.925-2.045,1.044-2.293c0.362-0.758,0.76-1.617,1.362-2.215
				c0.965-0.959,1.304,0.795,1.451,1.479c0.389,1.812,0.602,3.635,0.951,5.451c0.352,1.82,0.744,3.619,1.068,5.445
				c0.255,1.438,0.415,4.146,1.861-0.604c0.545-1.784,1.223-3.804,1.67-5.613c0.223-0.898,0.43-1.802,0.65-2.701
				c0.598-2.431,1.443-3.486,4.141,4.053c0.102,0.279,0.264,1.127,0.896,0.354l4.04-3.702c0,0,49.826,1.059,71.145,0.043
				c2.432-0.115,4.401,7.561,5.963-0.021c0.043-0.201,0.084-0.381,0.147-0.535c12.525,4.744,20.23,11.138,20.23,18.166
				c0,6.652-6.978,11.715-12.832,14.789l-1.453,0.781L146.635,134.432z"/>
		</g>
	</g>
</g>
<g id="Layer_2">
	<g>
		<g>
			<polyline fill="none" stroke="#FFFFFF" stroke-width="0.1308" stroke-miterlimit="10" points="11.003,7.323 10.859,6.407 
				11.416,6.568 10.859,5.851 11.475,5.757 			"/>
			<g>
				<circle fill="#FFFFFF" cx="9.434" cy="9.067" r="0.548"/>
				<circle fill="#FFFFFF" cx="12.379" cy="9.067" r="0.548"/>
			</g>
			<circle fill="none" stroke="#FFFFFF" stroke-width="0.1308" stroke-miterlimit="10" cx="11.658" cy="5.73" r="0.238"/>
			<g>
				<path fill="#FFFFFF" d="M7.363,12.804V12.74c0-0.032,0.009-0.059,0.029-0.078l0.374-0.384c0.01-0.011,0.021-0.017,0.031-0.017
					c0.012,0,0.023,0.008,0.032,0.024c0.01,0.017,0.015,0.036,0.015,0.06c0,0.03-0.007,0.053-0.021,0.067l-0.351,0.358l0.352,0.355
					c0.013,0.016,0.021,0.039,0.021,0.069c0,0.023-0.005,0.044-0.015,0.06c-0.009,0.017-0.021,0.024-0.032,0.024
					c-0.01,0-0.02-0.006-0.031-0.018l-0.374-0.382C7.373,12.865,7.363,12.838,7.363,12.804z"/>
				<path fill="#FFFFFF" d="M8.542,12.267l-0.386,1.132c-0.006,0.016-0.016,0.025-0.029,0.025s-0.025-0.008-0.035-0.022
					s-0.016-0.033-0.016-0.056c0-0.021,0.004-0.042,0.011-0.065l0.387-1.13c0.007-0.018,0.017-0.026,0.03-0.026
					c0.011,0,0.023,0.007,0.034,0.021c0.011,0.015,0.016,0.033,0.016,0.056C8.553,12.222,8.55,12.243,8.542,12.267z"/>
				<path fill="#FFFFFF" d="M9.1,13.423H9.004c-0.039,0-0.073-0.023-0.102-0.072c-0.029-0.048-0.043-0.105-0.043-0.174v-0.533H8.812
					c-0.013,0-0.025-0.008-0.034-0.023c-0.009-0.016-0.014-0.035-0.014-0.059c0-0.022,0.005-0.043,0.014-0.058
					c0.009-0.017,0.021-0.024,0.034-0.024h0.05v-0.201c0-0.022,0.004-0.042,0.014-0.059c0.01-0.016,0.021-0.023,0.033-0.023
					c0.012,0,0.024,0.008,0.033,0.024c0.01,0.017,0.015,0.035,0.015,0.058v0.201h0.191c0.013,0,0.024,0.008,0.033,0.024
					c0.01,0.017,0.014,0.035,0.014,0.058c0,0.023-0.005,0.042-0.014,0.059c-0.009,0.016-0.021,0.024-0.033,0.024H8.956v0.532
					c0,0.022,0.005,0.042,0.014,0.058c0.009,0.017,0.021,0.024,0.034,0.024h0.093c0.026,0,0.043-0.023,0.051-0.07
					c0.009-0.048,0.024-0.07,0.048-0.07c0.014,0,0.026,0.008,0.034,0.023c0.009,0.016,0.014,0.036,0.014,0.061
					c0,0.049-0.014,0.099-0.041,0.147C9.176,13.4,9.142,13.423,9.1,13.423z"/>
				<path fill="#FFFFFF" d="M9.466,13.341v-0.778c0-0.023,0.005-0.043,0.014-0.06c0.009-0.017,0.02-0.025,0.033-0.025
					s0.025,0.009,0.034,0.025c0.01,0.016,0.014,0.036,0.014,0.06v0.103l0.077-0.115c0.032-0.047,0.063-0.069,0.094-0.069h0.069
					c0.04,0,0.073,0.024,0.101,0.072c0.029,0.048,0.042,0.105,0.042,0.174v0.044c0,0.023-0.004,0.044-0.013,0.061
					c-0.01,0.016-0.021,0.023-0.034,0.023c-0.013,0-0.024-0.008-0.033-0.023c-0.01-0.016-0.014-0.036-0.014-0.059v-0.046
					c0-0.023-0.004-0.042-0.013-0.059c-0.01-0.016-0.021-0.023-0.034-0.023H9.741c-0.013,0-0.028,0.012-0.045,0.036l-0.135,0.202
					v0.458c0,0.023-0.005,0.043-0.015,0.059s-0.021,0.024-0.033,0.024S9.49,13.415,9.48,13.4S9.466,13.365,9.466,13.341z"/>
				<path fill="#FFFFFF" d="M10.552,13.421h-0.291c-0.013,0-0.024-0.008-0.033-0.023s-0.014-0.035-0.014-0.059
					c0-0.022,0.005-0.041,0.014-0.058c0.01-0.016,0.021-0.024,0.033-0.024h0.098v-0.613h-0.096c-0.013,0-0.025-0.008-0.034-0.024
					c-0.009-0.017-0.014-0.035-0.014-0.058s0.005-0.043,0.014-0.059c0.009-0.018,0.02-0.026,0.034-0.026h0.145
					c0.013,0,0.024,0.009,0.034,0.026c0.009,0.016,0.014,0.036,0.014,0.059v0.695h0.095c0.013,0,0.025,0.009,0.034,0.023
					c0.01,0.017,0.015,0.036,0.015,0.059c0,0.023-0.005,0.043-0.014,0.059C10.575,13.413,10.564,13.421,10.552,13.421z
					 M10.358,12.051h0.049c0.013,0,0.025,0.009,0.034,0.024c0.009,0.017,0.014,0.035,0.014,0.059v0.07
					c0,0.022-0.004,0.043-0.014,0.059c-0.009,0.017-0.02,0.025-0.034,0.025h-0.051c-0.014,0-0.025-0.009-0.034-0.025
					c-0.009-0.018-0.013-0.036-0.013-0.057l0.001-0.072c0-0.023,0.005-0.042,0.014-0.059C10.333,12.06,10.344,12.051,10.358,12.051z
					"/>
				<path fill="#FFFFFF" d="M10.965,12.206v0.386l0.042-0.058c0.026-0.038,0.053-0.057,0.082-0.057h0.087
					c0.031,0,0.061,0.019,0.085,0.057l0.046,0.067c0.011,0.019,0.022,0.046,0.03,0.081c0.008,0.035,0.013,0.069,0.013,0.104v0.332
					c0,0.03-0.004,0.062-0.012,0.095s-0.016,0.059-0.026,0.074l-0.042,0.066c-0.011,0.018-0.026,0.033-0.046,0.048
					c-0.019,0.014-0.036,0.021-0.049,0.021h-0.082c-0.04,0-0.083-0.038-0.13-0.114v0.032c0,0.023-0.004,0.043-0.013,0.059
					c-0.01,0.016-0.02,0.023-0.034,0.023c-0.013,0-0.024-0.008-0.034-0.023s-0.014-0.035-0.014-0.059v-1.136
					c0-0.022,0.005-0.042,0.014-0.058c0.01-0.017,0.021-0.023,0.034-0.023c0.014,0,0.024,0.007,0.034,0.023
					C10.961,12.163,10.965,12.183,10.965,12.206z M11.169,12.644h-0.066c-0.016,0-0.028,0.007-0.036,0.019l-0.086,0.127
					c-0.011,0.017-0.016,0.042-0.016,0.075v0.186c0,0.028,0.006,0.051,0.018,0.068l0.077,0.111c0.011,0.018,0.023,0.026,0.034,0.026
					h0.078c0.011,0,0.021-0.005,0.029-0.017l0.038-0.06c0.01-0.013,0.015-0.031,0.015-0.056v-0.346c0-0.027-0.005-0.048-0.015-0.063
					l-0.035-0.05C11.194,12.652,11.183,12.644,11.169,12.644z"/>
				<path fill="#FFFFFF" d="M12.049,12.789v0.198c0,0.022-0.005,0.041-0.015,0.058s-0.021,0.025-0.033,0.025h-0.337v0.048
					c0,0.027,0.007,0.052,0.021,0.071l0.028,0.04c0.015,0.021,0.028,0.03,0.043,0.03h0.245c0.012,0,0.023,0.008,0.032,0.023
					c0.01,0.016,0.015,0.035,0.015,0.059c0,0.021-0.005,0.042-0.015,0.058s-0.021,0.024-0.032,0.024H11.75
					c-0.017,0-0.034-0.006-0.052-0.019c-0.019-0.011-0.031-0.023-0.041-0.037l-0.043-0.064c-0.013-0.019-0.024-0.044-0.033-0.077
					c-0.009-0.032-0.013-0.063-0.013-0.09v-0.376c0-0.021,0.004-0.05,0.015-0.087c0.01-0.036,0.021-0.065,0.036-0.085l0.039-0.055
					c0.027-0.036,0.056-0.054,0.087-0.054h0.135c0.032,0,0.064,0.024,0.095,0.072l0.035,0.058
					C12.036,12.651,12.049,12.71,12.049,12.789z M11.666,12.776v0.127h0.289v-0.114c0-0.03-0.006-0.054-0.017-0.07l-0.028-0.042
					c-0.015-0.02-0.028-0.03-0.039-0.03h-0.119c-0.015,0-0.028,0.01-0.041,0.026l-0.027,0.041
					C11.672,12.729,11.666,12.75,11.666,12.776z"/>
				<path fill="#FFFFFF" d="M12.749,13.021v0.072c0,0.09-0.019,0.168-0.056,0.233c-0.037,0.064-0.082,0.097-0.135,0.097h-0.291
					v-1.299h0.291c0.053,0,0.098,0.032,0.135,0.097s0.056,0.143,0.056,0.233v0.069c0,0.098-0.021,0.181-0.065,0.249
					C12.729,12.842,12.749,12.925,12.749,13.021z M12.651,12.523v-0.068c0-0.045-0.009-0.084-0.027-0.117
					c-0.02-0.032-0.042-0.049-0.067-0.049h-0.193v0.398h0.193c0.025,0,0.048-0.017,0.067-0.048
					C12.643,12.607,12.651,12.567,12.651,12.523z M12.651,13.093v-0.068c0-0.045-0.009-0.085-0.027-0.117
					c-0.02-0.032-0.042-0.049-0.067-0.049h-0.192v0.398h0.192c0.025,0,0.048-0.016,0.067-0.048
					C12.643,13.177,12.651,13.138,12.651,13.093z"/>
				<path fill="#FFFFFF" d="M13.451,12.776v0.348c0,0.073-0.021,0.143-0.062,0.204c-0.04,0.063-0.081,0.094-0.124,0.094h-0.11
					c-0.044,0-0.086-0.031-0.125-0.096c-0.039-0.063-0.06-0.131-0.06-0.202v-0.348c0-0.071,0.02-0.139,0.059-0.202
					c0.038-0.064,0.08-0.096,0.126-0.096h0.111c0.042-0.002,0.084,0.029,0.123,0.092C13.431,12.632,13.451,12.701,13.451,12.776z
					 M13.066,12.782v0.333c0,0.029,0.007,0.054,0.019,0.071l0.036,0.053c0.008,0.012,0.019,0.018,0.033,0.018h0.11
					c0.016,0,0.03-0.01,0.044-0.029l0.029-0.045c0.011-0.016,0.018-0.037,0.018-0.065v-0.333c0-0.032-0.007-0.057-0.018-0.071
					l-0.033-0.047c-0.012-0.016-0.025-0.024-0.04-0.024h-0.099c-0.021,0-0.038,0.009-0.05,0.026l-0.032,0.048
					C13.071,12.734,13.066,12.756,13.066,12.782z"/>
				<path fill="#FFFFFF" d="M14.006,13.423h-0.095c-0.039,0-0.073-0.023-0.102-0.072c-0.028-0.048-0.043-0.105-0.043-0.174v-0.533
					h-0.048c-0.014,0-0.025-0.008-0.034-0.023s-0.014-0.035-0.014-0.059c0-0.022,0.005-0.043,0.014-0.058
					c0.01-0.017,0.021-0.024,0.034-0.024h0.05v-0.201c0-0.022,0.004-0.042,0.014-0.059c0.01-0.016,0.021-0.023,0.033-0.023
					c0.012,0,0.023,0.008,0.033,0.024s0.015,0.035,0.015,0.058v0.201h0.191c0.013,0,0.024,0.008,0.033,0.024
					c0.01,0.017,0.014,0.035,0.014,0.058c0,0.023-0.005,0.042-0.014,0.059c-0.009,0.016-0.021,0.024-0.033,0.024h-0.191v0.532
					c0,0.022,0.005,0.042,0.014,0.058c0.01,0.017,0.021,0.024,0.034,0.024h0.093c0.025,0,0.043-0.023,0.051-0.07
					c0.009-0.048,0.024-0.07,0.048-0.07c0.014,0,0.025,0.008,0.034,0.023s0.013,0.036,0.013,0.061c0,0.049-0.013,0.099-0.04,0.147
					C14.083,13.4,14.048,13.423,14.006,13.423z"/>
				<path fill="#FFFFFF" d="M14.867,12.74v0.063c0,0.033-0.011,0.06-0.028,0.079l-0.376,0.382c-0.011,0.011-0.021,0.017-0.03,0.017
					c-0.012,0-0.023-0.008-0.033-0.023c-0.009-0.016-0.014-0.035-0.014-0.06c0-0.031,0.008-0.054,0.021-0.068l0.351-0.357
					l-0.351-0.356c-0.015-0.016-0.021-0.039-0.021-0.07c0-0.024,0.005-0.045,0.014-0.061c0.011-0.016,0.021-0.022,0.033-0.022
					c0.01,0,0.02,0.005,0.03,0.017l0.376,0.383C14.857,12.681,14.867,12.707,14.867,12.74z"/>
			</g>
			<path fill="#FFFFFF" d="M15.919,12.42c0-0.466-0.432-0.892-1.148-1.225c-0.026-1.944-1.511-3.592-3.409-3.794
				c-0.065-0.171-0.229-0.292-0.423-0.292c-0.196,0-0.363,0.125-0.426,0.3C8.645,7.636,7.194,9.228,7.17,11.151
				c-0.778,0.338-1.251,0.783-1.251,1.269c0,1.04,1.863,1.914,4.54,1.914c0.052,0,0.104,0,0.157-0.001
				c0.461-0.007,0.922-0.053,1.333-0.059l3.068,0.376l-0.061-1.099C15.562,13.235,15.919,12.843,15.919,12.42z M12.379,8.246
				c0.453,0,0.819,0.367,0.819,0.82s-0.366,0.821-0.819,0.821c-0.454,0-0.821-0.368-0.821-0.821S11.925,8.246,12.379,8.246z
				 M11.486,10.515c0.033-0.056,0.051-0.106,0.051-0.171c0-0.199-0.179-0.379-0.4-0.379h-0.399c-0.221,0-0.4,0.181-0.4,0.379
				c0,0.063,0.018,0.12,0.049,0.176c-0.093,0.004-0.186,0.004-0.277,0.01c-0.027-0.06-0.042-0.115-0.042-0.184
				c0-0.29,0.259-0.513,0.58-0.513h0.581c0.319,0,0.579,0.222,0.579,0.511c0,0.07-0.015,0.13-0.043,0.191
				C11.673,10.529,11.58,10.52,11.486,10.515z M11.646,10.705c-0.105,0.101-0.254,0.175-0.419,0.175h-0.58
				c-0.165,0-0.315-0.075-0.42-0.177c0.109-0.006,0.22-0.003,0.331-0.007c0.054,0.029,0.115,0.052,0.181,0.052h0.399
				c0.065,0,0.125-0.022,0.179-0.051C11.427,10.7,11.537,10.699,11.646,10.705z M9.434,8.246c0.454,0,0.821,0.367,0.821,0.82
				S9.888,9.888,9.434,9.888c-0.453,0-0.82-0.368-0.82-0.821S8.981,8.246,9.434,8.246z M14.88,14.048l0.027,0.47l-2.467-0.382
				l-0.283-0.081c-0.312,0.004-0.614,0.021-0.906,0.039c-0.265,0.016-0.515,0.03-0.744,0.033c-0.052,0.001-0.104,0.001-0.157,0.001
				c-2.432,0-4.265-0.729-4.265-1.711c0-0.445,0.47-0.884,1.242-1.146h0.798c0.015,0,0.06-0.134,0.068-0.149
				c0.023-0.05,0.049-0.105,0.089-0.145c0.063-0.063,0.085,0.052,0.095,0.097c0.026,0.118,0.04,0.237,0.063,0.356
				s0.048,0.237,0.07,0.355c0.016,0.095,0.027,0.271,0.122-0.039c0.035-0.117,0.08-0.249,0.109-0.367
				c0.014-0.059,0.028-0.117,0.042-0.177c0.04-0.159,0.094-0.228,0.271,0.265c0.006,0.019,0.017,0.074,0.059,0.024l0.264-0.243
				c0,0,3.259,0.069,4.654,0.003c0.159-0.008,0.288,0.495,0.391-0.001c0.003-0.014,0.005-0.024,0.009-0.035
				c0.819,0.311,1.323,0.729,1.323,1.188c0,0.436-0.456,0.767-0.839,0.968l-0.096,0.051L14.88,14.048z"/>
		</g>
	</g>
</g>
</svg>
