<?xml version="1.0" encoding="utf-8"?>
<!-- Generator: Adobe Illustrator 16.0.0, SVG Export Plug-In . SVG Version: 6.00 Build 0)  -->
<!DOCTYPE svg PUBLIC "-//W3C//DTD SVG 1.1//EN" "http://www.w3.org/Graphics/SVG/1.1/DTD/svg11.dtd">
<svg version="1.1" id="Layer_1" xmlns="http://www.w3.org/2000/svg" xmlns:xlink="http://www.w3.org/1999/xlink" x="0px" y="0px"
	 width="116.595px" height="98.317px" viewBox="28.79 2.641 116.595 98.317" enable-background="new 28.79 2.641 116.595 98.317"
	 xml:space="preserve">
<g id="Layer_1_1_" display="none">
	<g display="inline">
		<circle fill="#03CCF4" cx="86.345" cy="86.346" r="86.345"/>
		<g>
			<polyline fill="none" stroke="#FFFFFF" stroke-width="2" stroke-miterlimit="10" points="87.376,31.622 85.179,17.635 
				93.697,20.085 85.179,9.118 94.583,7.684 			"/>
			<g>
				<circle fill="#FFFFFF" cx="63.396" cy="58.284" r="8.383"/>
				<circle fill="#FFFFFF" cx="108.396" cy="58.284" r="8.383"/>
			</g>
			<circle fill="none" stroke="#FFFFFF" stroke-width="2" stroke-miterlimit="10" cx="97.396" cy="7.284" r="3.643"/>
			<g>
				<path fill="#FFFFFF" d="M31.732,115.417v-0.973c0-0.496,0.146-0.896,0.442-1.195l5.733-5.854c0.155-0.18,0.313-0.27,0.468-0.27
					c0.186,0,0.352,0.123,0.499,0.373c0.146,0.25,0.222,0.556,0.222,0.912c0,0.471-0.107,0.813-0.32,1.033l-5.362,5.475l5.364,5.443
					c0.213,0.24,0.318,0.594,0.318,1.063c0,0.359-0.074,0.664-0.222,0.914c-0.146,0.25-0.313,0.375-0.499,0.375
					c-0.145,0-0.3-0.09-0.468-0.27l-5.735-5.837C31.879,116.333,31.732,115.935,31.732,115.417z"/>
				<path fill="#FFFFFF" d="M49.75,107.203l-5.91,17.291c-0.092,0.26-0.238,0.391-0.44,0.391c-0.189,0-0.367-0.111-0.531-0.336
					s-0.247-0.512-0.247-0.858c0-0.31,0.059-0.64,0.173-0.985l5.914-17.271c0.099-0.273,0.25-0.41,0.457-0.41
					c0.185,0,0.357,0.105,0.521,0.32c0.164,0.217,0.246,0.496,0.246,0.846C49.932,106.516,49.872,106.854,49.75,107.203z"/>
				<path fill="#FFFFFF" d="M58.275,124.884H56.82c-0.601,0-1.117-0.367-1.551-1.104s-0.649-1.624-0.649-2.661v-8.146h-0.745
					c-0.202,0-0.374-0.12-0.516-0.358c-0.143-0.238-0.212-0.537-0.212-0.896c0-0.35,0.07-0.645,0.212-0.889s0.313-0.367,0.516-0.367
					h0.764v-3.078c0-0.35,0.069-0.646,0.212-0.891s0.313-0.365,0.517-0.365c0.189,0,0.358,0.125,0.507,0.373
					c0.147,0.25,0.221,0.543,0.221,0.883v3.078h2.929c0.195,0,0.367,0.125,0.512,0.373c0.144,0.25,0.216,0.545,0.216,0.883
					c0,0.351-0.072,0.646-0.216,0.891c-0.146,0.244-0.315,0.366-0.512,0.366h-2.944v8.146c0,0.34,0.073,0.633,0.221,0.883
					c0.146,0.248,0.322,0.373,0.524,0.373h1.42c0.387,0,0.644-0.359,0.771-1.084c0.127-0.722,0.372-1.082,0.735-1.082
					c0.214,0,0.39,0.121,0.523,0.365c0.135,0.244,0.204,0.551,0.204,0.92c0,0.756-0.207,1.512-0.62,2.264
					C59.443,124.507,58.916,124.884,58.275,124.884z"/>
				<path fill="#FFFFFF" d="M63.88,123.628v-11.912c0-0.35,0.07-0.648,0.212-0.902c0.143-0.254,0.313-0.381,0.517-0.381
					s0.374,0.124,0.516,0.373s0.212,0.553,0.212,0.91v1.568l1.188-1.748c0.491-0.718,0.971-1.076,1.438-1.076h1.064
					c0.602,0,1.115,0.369,1.542,1.105c0.428,0.738,0.642,1.625,0.642,2.661v0.673c0,0.357-0.07,0.662-0.212,0.911
					s-0.313,0.374-0.516,0.374c-0.201,0-0.374-0.122-0.517-0.366c-0.142-0.243-0.212-0.54-0.212-0.89v-0.702
					c0-0.351-0.07-0.646-0.212-0.892c-0.143-0.244-0.313-0.364-0.517-0.364h-0.943c-0.202,0-0.428,0.185-0.676,0.554l-2.07,3.094
					v7.01c0,0.351-0.071,0.646-0.216,0.891c-0.146,0.244-0.314,0.365-0.512,0.365c-0.201,0-0.374-0.121-0.517-0.365
					C63.95,124.274,63.88,123.978,63.88,123.628z"/>
				<path fill="#FFFFFF" d="M80.469,124.854h-4.436c-0.203,0-0.374-0.122-0.517-0.366s-0.212-0.541-0.212-0.89
					c0-0.341,0.07-0.634,0.212-0.884c0.143-0.248,0.313-0.373,0.517-0.373h1.489v-9.37h-1.474c-0.201,0-0.374-0.124-0.515-0.374
					c-0.143-0.248-0.213-0.543-0.213-0.883c0-0.35,0.071-0.648,0.213-0.902c0.141-0.254,0.313-0.381,0.515-0.381h2.219
					c0.202,0,0.374,0.127,0.517,0.381c0.141,0.254,0.212,0.555,0.212,0.902v10.627h1.456c0.201,0,0.377,0.121,0.523,0.365
					s0.221,0.541,0.221,0.892c0,0.349-0.071,0.646-0.217,0.89C80.836,124.732,80.666,124.854,80.469,124.854z M77.507,103.914h0.763
					c0.202,0,0.374,0.123,0.517,0.366c0.141,0.245,0.212,0.54,0.212,0.89v1.076c0,0.351-0.071,0.65-0.212,0.904
					c-0.143,0.254-0.313,0.381-0.517,0.381H77.49c-0.208,0-0.383-0.129-0.524-0.389s-0.209-0.549-0.203-0.867l0.017-1.105
					c0-0.35,0.071-0.645,0.213-0.89C77.133,104.037,77.305,103.914,77.507,103.914z"/>
				<path fill="#FFFFFF" d="M86.802,106.275v5.904l0.642-0.883c0.404-0.576,0.822-0.865,1.257-0.865h1.334
					c0.489,0,0.928,0.289,1.309,0.865l0.693,1.031c0.188,0.289,0.348,0.701,0.471,1.24c0.125,0.537,0.188,1.064,0.188,1.584v5.082
					c0,0.458-0.06,0.939-0.174,1.449c-0.115,0.508-0.248,0.882-0.397,1.121l-0.633,1.029c-0.162,0.271-0.394,0.513-0.693,0.727
					c-0.299,0.215-0.553,0.32-0.762,0.32h-1.248c-0.604,0-1.268-0.584-1.981-1.748v0.492c0,0.351-0.071,0.646-0.214,0.891
					c-0.142,0.242-0.313,0.365-0.516,0.365s-0.374-0.123-0.516-0.365c-0.142-0.244-0.212-0.54-0.212-0.891v-17.354
					c0-0.35,0.071-0.646,0.217-0.891c0.146-0.242,0.314-0.365,0.512-0.365c0.202,0,0.374,0.123,0.516,0.365
					C86.734,105.628,86.802,105.928,86.802,106.275z M89.919,112.972h-1.004c-0.242,0-0.429,0.095-0.556,0.283l-1.309,1.929
					c-0.168,0.26-0.251,0.647-0.251,1.166v2.84c0,0.418,0.096,0.769,0.285,1.047l1.17,1.703c0.168,0.271,0.345,0.403,0.527,0.403
					h1.188c0.168,0,0.313-0.09,0.434-0.27l0.58-0.896c0.156-0.198,0.234-0.482,0.234-0.852v-5.291c0-0.42-0.078-0.738-0.234-0.957
					l-0.528-0.764C90.296,113.085,90.117,112.972,89.919,112.972z"/>
				<path fill="#FFFFFF" d="M103.357,115.184v3.034c0,0.339-0.071,0.634-0.217,0.882c-0.146,0.25-0.313,0.374-0.513,0.374h-5.146
					v0.73c0,0.43,0.104,0.793,0.32,1.092l0.424,0.613c0.229,0.309,0.451,0.463,0.657,0.463h3.742c0.196,0,0.367,0.123,0.513,0.365
					c0.146,0.245,0.217,0.541,0.217,0.891c0,0.338-0.073,0.634-0.222,0.881c-0.147,0.25-0.315,0.375-0.508,0.375h-3.838
					c-0.254,0-0.521-0.092-0.802-0.276c-0.278-0.185-0.485-0.375-0.618-0.575l-0.65-0.986c-0.2-0.276-0.37-0.666-0.506-1.166
					c-0.137-0.498-0.203-0.955-0.203-1.375v-5.754c0-0.328,0.072-0.771,0.222-1.33c0.146-0.559,0.334-0.99,0.56-1.301l0.604-0.822
					c0.397-0.557,0.842-0.836,1.326-0.836h2.045c0.514,0,0.998,0.369,1.455,1.104l0.545,0.896
					C103.16,113.072,103.357,113.979,103.357,115.184z M97.501,114.99v1.942h4.418v-1.749c0-0.469-0.084-0.826-0.252-1.076
					l-0.424-0.645c-0.222-0.309-0.416-0.463-0.591-0.463h-1.827c-0.226,0-0.431,0.137-0.615,0.403l-0.424,0.612
					C97.595,114.268,97.501,114.591,97.501,114.99z"/>
				<path fill="#FFFFFF" d="M114.072,118.727v1.104c0,1.385-0.282,2.573-0.854,3.563c-0.567,0.992-1.254,1.487-2.057,1.487h-4.453
					V105.02h4.453c0.803,0,1.487,0.494,2.057,1.479c0.57,0.985,0.854,2.178,0.854,3.571v1.062c0,1.484-0.331,2.75-0.995,3.798
					C113.74,115.996,114.072,117.262,114.072,118.727z M112.582,111.104v-1.03c0-0.697-0.144-1.296-0.429-1.794
					c-0.284-0.499-0.629-0.747-1.026-0.747h-2.963v6.084h2.963c0.394,0,0.733-0.248,1.022-0.74
					C112.439,112.38,112.582,111.791,112.582,111.104z M112.582,119.832v-1.045c0-0.697-0.144-1.297-0.429-1.795
					c-0.284-0.498-0.629-0.746-1.026-0.746h-2.944v6.098h2.944c0.394,0,0.733-0.245,1.022-0.738S112.582,120.52,112.582,119.832z"/>
				<path fill="#FFFFFF" d="M124.789,114.99v5.307c0,1.125-0.308,2.166-0.922,3.123c-0.615,0.957-1.25,1.437-1.902,1.437h-1.707
					c-0.663,0-1.299-0.485-1.903-1.458c-0.606-0.973-0.91-2.004-0.91-3.102v-5.307c0-1.097,0.296-2.131,0.89-3.102
					c0.592-0.975,1.233-1.457,1.926-1.457h1.707c0.652-0.021,1.287,0.445,1.902,1.402
					C124.484,112.791,124.789,113.843,124.789,114.99z M118.916,115.093v5.082c0,0.459,0.097,0.822,0.285,1.094l0.547,0.807
					c0.121,0.18,0.291,0.271,0.51,0.271h1.688c0.248,0,0.476-0.154,0.677-0.465l0.44-0.674c0.181-0.236,0.271-0.57,0.271-1v-5.082
					c0-0.498-0.09-0.867-0.271-1.105l-0.51-0.702c-0.175-0.249-0.375-0.374-0.607-0.374h-1.506c-0.33,0-0.584,0.135-0.764,0.404
					l-0.494,0.73C119.005,114.337,118.916,114.675,118.916,115.093z"/>
				<path fill="#FFFFFF" d="M133.287,124.884h-1.455c-0.603,0-1.117-0.367-1.551-1.104c-0.435-0.737-0.65-1.624-0.65-2.661v-8.146
					h-0.743c-0.203,0-0.375-0.12-0.517-0.358s-0.213-0.537-0.213-0.896c0-0.35,0.071-0.645,0.213-0.889s0.313-0.367,0.517-0.367
					h0.762v-3.078c0-0.35,0.07-0.646,0.213-0.891c0.142-0.244,0.313-0.365,0.517-0.365c0.188,0,0.358,0.125,0.506,0.373
					c0.148,0.25,0.222,0.543,0.222,0.883v3.078h2.931c0.194,0,0.364,0.125,0.51,0.373c0.146,0.25,0.218,0.545,0.218,0.883
					c0,0.351-0.072,0.646-0.218,0.891s-0.313,0.366-0.51,0.366h-2.945v8.146c0,0.34,0.072,0.633,0.222,0.883
					c0.146,0.248,0.319,0.373,0.522,0.373h1.42c0.388,0,0.646-0.359,0.771-1.084c0.127-0.722,0.373-1.082,0.735-1.082
					c0.216,0,0.39,0.121,0.525,0.365c0.135,0.244,0.203,0.551,0.203,0.92c0,0.756-0.207,1.512-0.619,2.264
					C134.455,124.507,133.927,124.884,133.287,124.884z"/>
				<path fill="#FFFFFF" d="M146.437,114.442v0.976c0,0.508-0.142,0.908-0.422,1.199l-5.736,5.832
					c-0.168,0.178-0.325,0.268-0.478,0.268c-0.186,0-0.352-0.117-0.497-0.357c-0.147-0.238-0.222-0.543-0.222-0.912
					c0-0.479,0.108-0.826,0.326-1.047l5.354-5.479l-5.354-5.438c-0.22-0.24-0.326-0.602-0.326-1.08c0-0.369,0.071-0.675,0.222-0.914
					c0.146-0.24,0.313-0.359,0.497-0.359c0.146,0,0.304,0.09,0.478,0.27l5.736,5.848
					C146.296,113.533,146.437,113.933,146.437,114.442z"/>
			</g>
			<path fill="#FFFFFF" d="M162.523,109.55c0-7.111-6.594-13.633-17.562-18.713c-0.396-29.728-23.08-54.923-52.103-58.003
				c-0.989-2.609-3.508-4.469-6.465-4.469c-3.001,0-5.549,1.916-6.507,4.587C51.334,36.41,29.152,60.746,28.79,90.143
				C16.893,95.317,9.659,102.108,9.659,109.55c0,15.896,28.475,29.246,69.399,29.246c0.79,0,1.588-0.004,2.39-0.014
				c7.056-0.091,14.101-0.814,20.39-0.896l46.912,5.757l-0.924-16.804C157.06,121.994,162.523,116.02,162.523,109.55z
				 M108.396,45.737c6.931,0,12.547,5.617,12.547,12.546c0,6.93-5.616,12.547-12.547,12.547s-12.547-5.617-12.547-12.547
				C95.849,51.354,101.466,45.737,108.396,45.737z M94.765,80.423c0.491-0.86,0.774-1.637,0.774-2.611
				c0-3.045-2.733-5.813-6.108-5.813h-6.109c-3.375,0-6.108,2.768-6.108,5.813c0,0.965,0.275,1.824,0.759,2.68
				c-1.424,0.059-2.851,0.066-4.249,0.153c-0.409-0.92-0.641-1.757-0.641-2.81c0-4.418,3.968-7.834,8.862-7.834h8.863
				c4.896,0,8.862,3.394,8.862,7.812c0,1.065-0.233,1.987-0.653,2.918C97.617,80.638,96.189,80.487,94.765,80.423z M97.21,83.333
				C95.597,84.857,93.328,86,90.808,86h-8.863c-2.532,0-4.813-1.151-6.427-2.689c1.666-0.086,3.352-0.057,5.049-0.104
				C81.396,83.645,82.33,84,83.322,84h6.109c0.979,0,1.901-0.35,2.723-0.775C93.855,83.273,95.544,83.244,97.21,83.333z
				 M63.396,45.737c6.931,0,12.547,5.617,12.547,12.546c0,6.93-5.616,12.547-12.547,12.547c-6.93,0-12.546-5.617-12.546-12.547
				C50.85,51.354,56.467,45.737,63.396,45.737z M146.636,134.432l0.422,7.188l-37.713-5.838l-4.326-1.244
				c-4.771,0.063-9.396,0.336-13.863,0.601c-4.045,0.237-7.864,0.465-11.357,0.508c-0.808,0.011-1.609,0.017-2.409,0.017
				c-37.172,0-65.198-11.14-65.198-26.16C12.19,102.707,19.383,96,31.178,92H43.37c0.239,0,0.925-2.045,1.044-2.293
				c0.361-0.758,0.76-1.617,1.361-2.215c0.966-0.959,1.305,0.795,1.451,1.48c0.39,1.811,0.603,3.635,0.952,5.451
				c0.351,1.82,0.744,3.619,1.068,5.445c0.255,1.438,0.415,4.146,1.861-0.603c0.544-1.784,1.223-3.804,1.67-5.613
				c0.223-0.899,0.43-1.802,0.65-2.702c0.598-2.43,1.443-3.486,4.141,4.053c0.102,0.279,0.264,1.127,0.896,0.355l4.04-3.704
				c0,0,49.825,1.06,71.145,0.044c2.431-0.115,4.401,7.561,5.963-0.02c0.043-0.201,0.084-0.381,0.147-0.535
				c12.525,4.744,20.23,11.137,20.23,18.166c0,6.652-6.978,11.715-12.832,14.789l-1.453,0.781L146.636,134.432z"/>
		</g>
	</g>
</g>
<g>
	<polyline fill="none" stroke="#FFFFFF" stroke-miterlimit="10" points="87.376,31.622 85.179,17.635 93.697,20.085 85.179,9.118 
		94.583,7.684 	"/>
	<g>
		<circle fill="#FFFFFF" cx="63.396" cy="58.284" r="8.383"/>
		<circle fill="#FFFFFF" cx="108.396" cy="58.284" r="8.383"/>
	</g>
	<circle fill="none" stroke="#FFFFFF" stroke-width="2" stroke-miterlimit="10" cx="97.396" cy="7.284" r="3.643"/>
	<circle fill="none" cx="108.396" cy="58.283" r="12.547"/>
	<path fill="none" d="M139.613,91.679c-1.562,7.58-3.532-0.096-5.963,0.02c-21.319,1.016-71.145-0.044-71.145-0.044l-4.04,3.704
		c-0.632,0.771-0.794-0.076-0.896-0.355c-2.697-7.539-3.543-6.482-4.141-4.053c-0.221,0.9-0.428,1.803-0.65,2.702
		c-0.205,0.831-0.461,1.706-0.729,2.582l88.376,2.897l4.959-5.579c-1.748-0.841-3.617-1.648-5.625-2.409
		C139.697,91.298,139.656,91.478,139.613,91.679z"/>
	<path fill="none" d="M89.431,84h-6.109c-0.991,0-1.926-0.354-2.755-0.793c-1.697,0.047-3.383,0.018-5.049,0.104
		C77.132,84.848,79.412,86,81.945,86h8.863c2.521,0,4.789-1.143,6.402-2.666c-1.666-0.09-3.355-0.061-5.057-0.109
		C91.332,83.65,90.41,84,89.431,84z"/>
	<path fill="none" d="M47.227,88.972c-0.146-0.686-0.485-2.439-1.451-1.48c-0.602,0.598-1,1.457-1.361,2.215
		C44.295,89.955,43.61,92,43.37,92H31.178c-0.372,0.126-0.725,0.263-1.087,0.394l3.368,3.232l15.06,0.494
		c-0.114-0.565-0.23-1.129-0.339-1.696C47.829,92.607,47.616,90.783,47.227,88.972z"/>
	<circle fill="none" cx="63.396" cy="58.283" r="12.547"/>
	<path fill="none" d="M73.082,77.835c0,1.053,0.231,1.89,0.641,2.81c1.398-0.087,2.825-0.095,4.249-0.153
		c-0.483-0.855-0.759-1.715-0.759-2.68c0-3.045,2.733-5.813,6.108-5.813h6.109c3.375,0,6.108,2.768,6.108,5.813
		c0,0.975-0.283,1.751-0.774,2.611c1.424,0.063,2.853,0.215,4.252,0.308c0.42-0.931,0.653-1.853,0.653-2.918
		c0-4.418-3.966-7.812-8.862-7.812h-8.863C77.05,70.001,73.082,73.417,73.082,77.835z"/>
	<path fill="#FFFFFF" d="M43.37,92c0.239,0,0.925-2.045,1.044-2.293c0.361-0.758,0.76-1.617,1.361-2.215
		c0.966-0.959,1.305,0.795,1.451,1.48c0.39,1.811,0.603,3.635,0.952,5.451c0.109,0.567,0.225,1.131,0.339,1.696l1.59,4.839
		l1.941-4.724c0.268-0.876,0.524-1.751,0.729-2.582c0.223-0.899,0.43-1.802,0.65-2.702c0.598-2.43,1.443-3.486,4.141,4.053
		c0.102,0.279,0.264,1.127,0.896,0.355L62.482,92c0,0,49.848,0.715,71.167-0.301c2.431-0.115,4.401,7.561,5.963-0.02
		c0.043-0.201,0.084-0.381,0.147-0.535c2.008,0.761,1.469-2.096,5.063,0.855c0,0,0.141-0.498,0.139-1.162
		c-0.396-29.728-23.08-54.923-52.103-58.003c-0.989-2.609-3.508-4.469-6.465-4.469c-3.001,0-5.549,1.916-6.507,4.587
		C51.334,36.41,29.152,60.746,28.79,90.143c-0.003,0.3,0.066,1.87,0.066,1.87C29.45,91.968,43.37,92,43.37,92z M90.808,86h-8.863
		c-2.532,0-4.813-1.151-6.427-2.689c1.666-0.086,3.352-0.057,5.049-0.104C81.396,83.645,82.33,84,83.322,84h6.109
		c0.979,0,1.901-0.35,2.723-0.775c1.701,0.049,3.391,0.02,5.057,0.109C95.597,84.857,93.328,86,90.808,86z M108.396,45.737
		c6.931,0,12.547,5.617,12.547,12.546c0,6.93-5.616,12.547-12.547,12.547s-12.547-5.617-12.547-12.547
		C95.849,51.354,101.466,45.737,108.396,45.737z M81.945,70.001h8.863c4.896,0,8.862,3.394,8.862,7.812
		c0,1.065-0.233,1.987-0.653,2.918c-1.399-0.093-2.828-0.244-4.252-0.308c0.491-0.86,0.774-1.637,0.774-2.611
		c0-3.045-2.733-5.813-6.108-5.813h-6.109c-3.375,0-6.108,2.768-6.108,5.813c0,0.965,0.275,1.824,0.759,2.68
		c-1.424,0.059-2.851,0.066-4.249,0.153c-0.409-0.92-0.641-1.757-0.641-2.81C73.082,73.417,77.05,70.001,81.945,70.001z
		 M63.396,45.737c6.931,0,12.547,5.617,12.547,12.546c0,6.93-5.616,12.547-12.547,12.547c-6.93,0-12.546-5.617-12.546-12.547
		C50.85,51.354,56.467,45.737,63.396,45.737z"/>
</g>
</svg>
