<?xml version="1.0" encoding="utf-8"?>
<!-- Generator: Adobe Illustrator 16.0.0, SVG Export Plug-In . SVG Version: 6.00 Build 0)  -->
<!DOCTYPE svg PUBLIC "-//W3C//DTD SVG 1.1//EN" "http://www.w3.org/Graphics/SVG/1.1/DTD/svg11.dtd">
<svg version="1.1" xmlns="http://www.w3.org/2000/svg" xmlns:xlink="http://www.w3.org/1999/xlink" x="0px" y="0px"
	 width="127.08px" height="76.197px" viewBox="0 0 127.08 76.197" enable-background="new 0 0 127.08 76.197" xml:space="preserve">
<g id="Layer_1" display="none">
	<g id="IMG_x5F_20230324_x5F_184752.psd" display="inline">
		
			<image overflow="visible" width="3120" height="2237" id="IMG_x5F_20230324_x5F_184752" xlink:href="AA18D871.jpg"  transform="matrix(0.0687 0 0 0.0687 -510.2251 -287.2998)">
		</image>
	</g>
	<rect x="-192.727" y="-138.651" display="inline" stroke="#231F20" stroke-miterlimit="10" width="525.205" height="379.708"/>
</g>
<g id="Layer_2">
	<circle fill="#FFFFFF" stroke="#231F20" stroke-width="0.3664" stroke-miterlimit="10" cx="63.475" cy="50.685" r="3.965"/>
	<radialGradient id="SVGID_1_" cx="63.4746" cy="50.6851" r="2.9846" gradientUnits="userSpaceOnUse">
		<stop  offset="0" style="stop-color:#FFFFFF"/>
		<stop  offset="1" style="stop-color:#231F20"/>
	</radialGradient>
	<circle fill="url(#SVGID_1_)" cx="63.475" cy="50.685" r="2.985"/>
	<g>
		<radialGradient id="SVGID_2_" cx="10.0664" cy="74.6646" r="118.0802" fx="85.2358" fy="77.4757" gradientUnits="userSpaceOnUse">
			<stop  offset="0" style="stop-color:#FFFFFF"/>
			<stop  offset="1" style="stop-color:#000000"/>
		</radialGradient>
		
			<circle fill="url(#SVGID_2_)" stroke="#FFFFFF" stroke-width="0.7328" stroke-miterlimit="10" cx="63.475" cy="29.354" r="19.057"/>
		
			<path fill="none" stroke="#FFFFFF" stroke-width="1.0992" stroke-linecap="round" stroke-linejoin="round" stroke-miterlimit="10" d="
			M63.285,11.284c0.87-0.399,2.001-3.688,1.705-4.935c-0.479-2.012-3.066-4.231-4.788-4.84c-1.156-0.409-1.973,0.069-3.08,0.844
			c-0.919,0.644-1.488,2.081-1.013,2.743c2.284,3.184,6.574-0.191,3.221-2.978c-2.208-1.836-5.862-2.436-7.483,0.281
			c-3.736,0.938,0.31,3.669,2.558,3.409c0.149-1.824-0.523-4.993-2.869-5.086c-1.013-0.04-2.297,1.23-3.028,1.876
			c-0.639,0.565-3.519,2.455-3.018,3.609c0.417,0.961,3.753,3.818,5.995,2.022c-1.176-0.547-2.465-2.087-2.703-3.409
			c-1.609-2.561-6.722-2.043-9.893,1.775"/>
		<radialGradient id="SVGID_3_" cx="37.3037" cy="7.0181" r="2.2327" gradientUnits="userSpaceOnUse">
			<stop  offset="0.1989" style="stop-color:#FFFFFF"/>
			<stop  offset="0.2188" style="stop-color:#ECFFEC"/>
			<stop  offset="0.2749" style="stop-color:#BBFFBB"/>
			<stop  offset="0.3353" style="stop-color:#8EFF8E"/>
			<stop  offset="0.3989" style="stop-color:#68FF68"/>
			<stop  offset="0.4664" style="stop-color:#48FF48"/>
			<stop  offset="0.5389" style="stop-color:#2DFF2D"/>
			<stop  offset="0.6182" style="stop-color:#19FF19"/>
			<stop  offset="0.7081" style="stop-color:#0BFF0B"/>
			<stop  offset="0.8173" style="stop-color:#03FF03"/>
			<stop  offset="1" style="stop-color:#00FF00"/>
		</radialGradient>
		
			<circle fill="url(#SVGID_3_)" stroke="#FFFFFF" stroke-width="0.7328" stroke-linecap="round" stroke-linejoin="round" stroke-miterlimit="10" cx="37.304" cy="7.018" r="2.233"/>
		<g>
			<polygon fill="#FFFFFF" stroke="#231F20" stroke-width="0.3664" stroke-miterlimit="10" points="78.352,66.497 77.354,73.925 
				49.595,73.925 48.598,66.497 45.658,66.497 47.125,76.013 79.824,76.013 81.291,66.497 			"/>
			<linearGradient id="SVGID_4_" gradientUnits="userSpaceOnUse" x1="-71.5308" y1="41.1431" x2="121.2649" y2="41.1431">
				<stop  offset="0" style="stop-color:#30445E"/>
				<stop  offset="0.828" style="stop-color:#FFFFFF"/>
			</linearGradient>
			<path fill="url(#SVGID_4_)" stroke="#231F20" stroke-width="0.3664" stroke-miterlimit="10" d="M126.896,34.769l-4.333-1.016
				V20.087c0-2.428-1.969-4.396-4.397-4.396H8.783c-2.428,0-4.396,1.969-4.396,4.396v13.691l-4.204,0.99V46.64l4.204,1.238v14.319
				c0,2.428,1.968,4.396,4.396,4.396h109.383c2.429,0,4.397-1.969,4.397-4.396V47.911l4.333-1.271V34.769z M2.347,44.946v-8.374
				l2.04-0.409v9.295L2.347,44.946z M124.732,44.946l-2.169,0.544v-9.354l2.169,0.436V44.946z"/>
			<linearGradient id="SVGID_5_" gradientUnits="userSpaceOnUse" x1="6.6299" y1="80.0825" x2="161.896" y2="-26.273">
				<stop  offset="0.172" style="stop-color:#FFFFFF"/>
				<stop  offset="1" style="stop-color:#30445E"/>
			</linearGradient>
			<linearGradient id="SVGID_6_" gradientUnits="userSpaceOnUse" x1="6.7612" y1="41.1431" x2="120.1885" y2="41.1431">
				<stop  offset="0" style="stop-color:#000000"/>
				<stop  offset="1" style="stop-color:#FFFFFF"/>
			</linearGradient>
			<path fill="url(#SVGID_5_)" stroke="url(#SVGID_6_)" stroke-width="0.3664" stroke-miterlimit="10" d="M120.005,21.422
				c0-2.273-1.884-4.117-4.206-4.117H11.151c-2.323,0-4.207,1.844-4.207,4.117v39.44c0,2.274,1.883,4.118,4.207,4.118h104.648
				c2.322,0,4.206-1.844,4.206-4.118V21.422z"/>
			<g>
				<path fill="#EC1C24" d="M16.932,51.32c1.448,0.952,3.075,1.857,4.882,2.703v-26.46c-1.808,0.847-3.435,1.752-4.882,2.703V51.32z
					"/>
				<path fill="#EC1C24" d="M12.874,48.029V33.558c-2.165,2.253-3.353,4.69-3.353,7.234C9.521,43.337,10.709,45.775,12.874,48.029z"
					/>
				<path fill="#EC1C24" d="M115.28,35.208v11.17c1.279-1.778,1.979-3.649,1.979-5.586C117.259,38.858,116.56,36.986,115.28,35.208z
					"/>
				<path fill="#EC1C24" d="M25.873,55.716c1.542,0.578,3.17,1.121,4.882,1.626V24.245c-1.712,0.503-3.34,1.048-4.882,1.626V55.716z
					"/>
				<path fill="#EC1C24" d="M34.813,58.426c1.576,0.382,3.203,0.734,4.883,1.054V22.107c-1.68,0.318-3.307,0.671-4.883,1.053V58.426
					z"/>
				<path fill="#EC1C24" d="M43.754,21.42v38.746c1.593,0.24,3.221,0.452,4.883,0.636V20.792c0-0.002-0.001-0.004-0.001-0.007
					C46.974,20.967,45.346,21.179,43.754,21.42z"/>
				<path fill="#EC1C24" d="M52.82,20.391c-0.074,0.127-0.125,0.261-0.125,0.4v40.395c1.603,0.126,3.232,0.222,4.882,0.29V20.792
					c0-0.243-0.129-0.469-0.338-0.665C55.748,20.193,54.273,20.28,52.82,20.391z"/>
				<path fill="#EC1C24" d="M63.39,19.988c-0.424,0-0.843,0.009-1.266,0.013c-0.303,0.222-0.488,0.493-0.488,0.791v40.79
					c0.583,0.007,1.166,0.017,1.754,0.017c1.051,0,2.092-0.015,3.128-0.037v-40.77c0-0.291-0.177-0.559-0.468-0.777
					C65.169,19.997,64.282,19.988,63.39,19.988z"/>
				<path fill="#EC1C24" d="M70.85,20.191c-0.169,0.182-0.273,0.384-0.273,0.601v40.617c1.652-0.085,3.28-0.199,4.882-0.341V20.792
					c0-0.095-0.02-0.188-0.055-0.277C73.908,20.382,72.39,20.273,70.85,20.191z"/>
				<path fill="#EC1C24" d="M79.517,60.649c1.664-0.201,3.293-0.433,4.882-0.693V21.63c-1.589-0.261-3.218-0.491-4.882-0.693V60.649
					z"/>
				<path fill="#EC1C24" d="M88.458,59.208c1.68-0.342,3.312-0.714,4.882-1.12V23.5c-1.571-0.406-3.202-0.778-4.882-1.121V59.208z"
					/>
				<path fill="#EC1C24" d="M97.399,56.925c1.72-0.542,3.346-1.126,4.882-1.745V26.406c-1.536-0.619-3.162-1.202-4.882-1.744V56.925
					z"/>
				<path fill="#EC1C24" d="M106.339,28.239v25.109c1.84-0.938,3.472-1.938,4.884-2.988V31.227
					C109.811,30.175,108.179,29.175,106.339,28.239z"/>
			</g>
			<path fill="#00FF00" stroke="#FFFFFF" stroke-width="0.3664" stroke-miterlimit="10" d="M75.668,69.969
				c0-1.144-0.927-2.07-2.071-2.07H54.056c-1.144,0-2.071,0.927-2.071,2.07l0,0c0,1.144,0.927,2.071,2.071,2.071h19.542
				C74.741,72.041,75.668,71.113,75.668,69.969L75.668,69.969z"/>
			<text transform="matrix(1 0 0 1 104.1885 66.2603)" font-family="'MyriadPro-Regular'" font-size="1.4413">&lt;/tribeBot&gt; ver 1.0</text>
		</g>
	</g>
	<g>
		<linearGradient id="SVGID_7_" gradientUnits="userSpaceOnUse" x1="13.9629" y1="41.1431" x2="52.0767" y2="41.1431">
			<stop  offset="0" style="stop-color:#FFFFFF"/>
			<stop  offset="1" style="stop-color:#231F20"/>
		</linearGradient>
		
			<circle fill="url(#SVGID_7_)" stroke="#231F20" stroke-width="0.3664" stroke-miterlimit="10" cx="33.02" cy="41.143" r="19.057"/>
		<radialGradient id="SVGID_8_" cx="33.0195" cy="41.1431" r="16.499" gradientUnits="userSpaceOnUse">
			<stop  offset="0" style="stop-color:#FFFFFF"/>
			<stop  offset="1" style="stop-color:#000000"/>
		</radialGradient>
		
			<circle fill="url(#SVGID_8_)" stroke="#FFFFFF" stroke-width="0.7328" stroke-miterlimit="10" cx="33.02" cy="41.143" r="16.499"/>
		<g>
			<linearGradient id="SVGID_9_" gradientUnits="userSpaceOnUse" x1="16.9756" y1="41.1431" x2="49.062" y2="41.1431">
				<stop  offset="0" style="stop-color:#FFFFFF"/>
				<stop  offset="1" style="stop-color:#000000"/>
			</linearGradient>
			
				<line fill="none" stroke="url(#SVGID_9_)" stroke-width="0.25" stroke-linecap="round" stroke-miterlimit="10" x1="48.937" y1="41.143" x2="17.101" y2="41.143"/>
			<linearGradient id="SVGID_10_" gradientUnits="userSpaceOnUse" x1="17.0361" y1="41.1431" x2="49.001" y2="41.1431">
				<stop  offset="0" style="stop-color:#FFFFFF"/>
				<stop  offset="1" style="stop-color:#000000"/>
			</linearGradient>
			
				<line fill="none" stroke="url(#SVGID_10_)" stroke-width="0.25" stroke-linecap="round" stroke-miterlimit="10" x1="48.876" y1="39.756" x2="17.161" y2="42.53"/>
			<linearGradient id="SVGID_11_" gradientUnits="userSpaceOnUse" x1="17.2173" y1="41.1431" x2="48.8198" y2="41.1431">
				<stop  offset="0" style="stop-color:#FFFFFF"/>
				<stop  offset="1" style="stop-color:#000000"/>
			</linearGradient>
			
				<line fill="none" stroke="url(#SVGID_11_)" stroke-width="0.25" stroke-linecap="round" stroke-miterlimit="10" x1="48.695" y1="38.379" x2="17.342" y2="43.908"/>
			<linearGradient id="SVGID_12_" gradientUnits="userSpaceOnUse" x1="17.5181" y1="41.144" x2="48.5195" y2="41.144">
				<stop  offset="0" style="stop-color:#FFFFFF"/>
				<stop  offset="1" style="stop-color:#000000"/>
			</linearGradient>
			
				<line fill="none" stroke="url(#SVGID_12_)" stroke-width="0.25" stroke-linecap="round" stroke-miterlimit="10" x1="48.395" y1="37.025" x2="17.643" y2="45.263"/>
			<linearGradient id="SVGID_13_" gradientUnits="userSpaceOnUse" x1="17.9351" y1="41.145" x2="48.1021" y2="41.145">
				<stop  offset="0" style="stop-color:#FFFFFF"/>
				<stop  offset="1" style="stop-color:#000000"/>
			</linearGradient>
			
				<line fill="none" stroke="url(#SVGID_13_)" stroke-width="0.25" stroke-linecap="round" stroke-miterlimit="10" x1="47.977" y1="35.701" x2="18.06" y2="46.588"/>
			<linearGradient id="SVGID_14_" gradientUnits="userSpaceOnUse" x1="18.4668" y1="41.144" x2="47.5703" y2="41.144">
				<stop  offset="0" style="stop-color:#FFFFFF"/>
				<stop  offset="1" style="stop-color:#000000"/>
			</linearGradient>
			
				<line fill="none" stroke="url(#SVGID_14_)" stroke-width="0.25" stroke-linecap="round" stroke-miterlimit="10" x1="47.445" y1="34.417" x2="18.592" y2="47.871"/>
			<linearGradient id="SVGID_15_" gradientUnits="userSpaceOnUse" x1="19.1084" y1="41.145" x2="46.9297" y2="41.145">
				<stop  offset="0" style="stop-color:#FFFFFF"/>
				<stop  offset="1" style="stop-color:#000000"/>
			</linearGradient>
			
				<line fill="none" stroke="url(#SVGID_15_)" stroke-width="0.25" stroke-linecap="round" stroke-miterlimit="10" x1="46.805" y1="33.187" x2="19.233" y2="49.102"/>
			<linearGradient id="SVGID_16_" gradientUnits="userSpaceOnUse" x1="19.8545" y1="41.145" x2="46.1836" y2="41.145">
				<stop  offset="0" style="stop-color:#FFFFFF"/>
				<stop  offset="1" style="stop-color:#000000"/>
			</linearGradient>
			
				<line fill="none" stroke="url(#SVGID_16_)" stroke-width="0.25" stroke-linecap="round" stroke-miterlimit="10" x1="46.059" y1="32.016" x2="19.979" y2="50.274"/>
			<linearGradient id="SVGID_17_" gradientUnits="userSpaceOnUse" x1="20.6997" y1="41.145" x2="45.3384" y2="41.145">
				<stop  offset="0" style="stop-color:#FFFFFF"/>
				<stop  offset="1" style="stop-color:#000000"/>
			</linearGradient>
			
				<line fill="none" stroke="url(#SVGID_17_)" stroke-width="0.25" stroke-linecap="round" stroke-miterlimit="10" x1="45.213" y1="30.914" x2="20.825" y2="51.376"/>
			<linearGradient id="SVGID_18_" gradientUnits="userSpaceOnUse" x1="21.6382" y1="41.145" x2="44.4009" y2="41.145">
				<stop  offset="0" style="stop-color:#FFFFFF"/>
				<stop  offset="1" style="stop-color:#000000"/>
			</linearGradient>
			
				<line fill="none" stroke="url(#SVGID_18_)" stroke-width="0.25" stroke-linecap="round" stroke-miterlimit="10" x1="44.276" y1="29.891" x2="21.763" y2="52.399"/>
			<linearGradient id="SVGID_19_" gradientUnits="userSpaceOnUse" x1="22.6626" y1="41.145" x2="43.3774" y2="41.145">
				<stop  offset="0" style="stop-color:#FFFFFF"/>
				<stop  offset="1" style="stop-color:#000000"/>
			</linearGradient>
			
				<line fill="none" stroke="url(#SVGID_19_)" stroke-width="0.25" stroke-linecap="round" stroke-miterlimit="10" x1="43.252" y1="28.953" x2="22.788" y2="53.337"/>
			<linearGradient id="SVGID_20_" gradientUnits="userSpaceOnUse" x1="23.7642" y1="41.145" x2="42.2759" y2="41.145">
				<stop  offset="0" style="stop-color:#FFFFFF"/>
				<stop  offset="1" style="stop-color:#000000"/>
			</linearGradient>
			
				<line fill="none" stroke="url(#SVGID_20_)" stroke-width="0.25" stroke-linecap="round" stroke-miterlimit="10" x1="42.151" y1="28.107" x2="23.889" y2="54.183"/>
			<linearGradient id="SVGID_21_" gradientUnits="userSpaceOnUse" x1="24.9351" y1="41.145" x2="41.1045" y2="41.145">
				<stop  offset="0" style="stop-color:#FFFFFF"/>
				<stop  offset="1" style="stop-color:#000000"/>
			</linearGradient>
			
				<line fill="none" stroke="url(#SVGID_21_)" stroke-width="0.25" stroke-linecap="round" stroke-miterlimit="10" x1="40.979" y1="27.361" x2="25.06" y2="54.929"/>
			<linearGradient id="SVGID_22_" gradientUnits="userSpaceOnUse" x1="26.167" y1="41.145" x2="39.873" y2="41.145">
				<stop  offset="0" style="stop-color:#FFFFFF"/>
				<stop  offset="1" style="stop-color:#000000"/>
			</linearGradient>
			
				<line fill="none" stroke="url(#SVGID_22_)" stroke-width="0.25" stroke-linecap="round" stroke-miterlimit="10" x1="39.748" y1="26.719" x2="26.292" y2="55.571"/>
			<linearGradient id="SVGID_23_" gradientUnits="userSpaceOnUse" x1="27.4502" y1="41.145" x2="38.5908" y2="41.145">
				<stop  offset="0" style="stop-color:#FFFFFF"/>
				<stop  offset="1" style="stop-color:#000000"/>
			</linearGradient>
			
				<line fill="none" stroke="url(#SVGID_23_)" stroke-width="0.25" stroke-linecap="round" stroke-miterlimit="10" x1="38.466" y1="26.188" x2="27.575" y2="56.102"/>
			<linearGradient id="SVGID_24_" gradientUnits="userSpaceOnUse" x1="28.7749" y1="41.145" x2="37.2671" y2="41.145">
				<stop  offset="0" style="stop-color:#FFFFFF"/>
				<stop  offset="1" style="stop-color:#000000"/>
			</linearGradient>
			
				<line fill="none" stroke="url(#SVGID_24_)" stroke-width="0.25" stroke-linecap="round" stroke-miterlimit="10" x1="37.142" y1="25.77" x2="28.9" y2="56.521"/>
			<linearGradient id="SVGID_25_" gradientUnits="userSpaceOnUse" x1="30.1309" y1="41.145" x2="35.9111" y2="41.145">
				<stop  offset="0" style="stop-color:#FFFFFF"/>
				<stop  offset="1" style="stop-color:#000000"/>
			</linearGradient>
			
				<line fill="none" stroke="url(#SVGID_25_)" stroke-width="0.25" stroke-linecap="round" stroke-miterlimit="10" x1="35.786" y1="25.469" x2="30.256" y2="56.822"/>
			<linearGradient id="SVGID_26_" gradientUnits="userSpaceOnUse" x1="31.5073" y1="41.146" x2="34.5342" y2="41.146">
				<stop  offset="0" style="stop-color:#FFFFFF"/>
				<stop  offset="1" style="stop-color:#000000"/>
			</linearGradient>
			
				<line fill="none" stroke="url(#SVGID_26_)" stroke-width="0.25" stroke-linecap="round" stroke-miterlimit="10" x1="34.409" y1="25.289" x2="31.632" y2="57.003"/>
			<linearGradient id="SVGID_27_" gradientUnits="userSpaceOnUse" x1="32.8945" y1="41.145" x2="33.1475" y2="41.145">
				<stop  offset="0" style="stop-color:#FFFFFF"/>
				<stop  offset="1" style="stop-color:#000000"/>
			</linearGradient>
			
				<line fill="none" stroke="url(#SVGID_27_)" stroke-width="0.25" stroke-linecap="round" stroke-miterlimit="10" x1="33.022" y1="25.227" x2="33.02" y2="57.063"/>
			<linearGradient id="SVGID_28_" gradientUnits="userSpaceOnUse" x1="31.5103" y1="41.146" x2="34.5322" y2="41.146">
				<stop  offset="0" style="stop-color:#FFFFFF"/>
				<stop  offset="1" style="stop-color:#000000"/>
			</linearGradient>
			
				<line fill="none" stroke="url(#SVGID_28_)" stroke-width="0.25" stroke-linecap="round" stroke-miterlimit="10" x1="31.635" y1="25.289" x2="34.407" y2="57.003"/>
			<linearGradient id="SVGID_29_" gradientUnits="userSpaceOnUse" x1="30.1338" y1="41.146" x2="35.9092" y2="41.146">
				<stop  offset="0" style="stop-color:#FFFFFF"/>
				<stop  offset="1" style="stop-color:#000000"/>
			</linearGradient>
			
				<line fill="none" stroke="url(#SVGID_29_)" stroke-width="0.25" stroke-linecap="round" stroke-miterlimit="10" x1="30.259" y1="25.469" x2="35.784" y2="56.823"/>
			<linearGradient id="SVGID_30_" gradientUnits="userSpaceOnUse" x1="28.7778" y1="41.146" x2="37.2651" y2="41.146">
				<stop  offset="0" style="stop-color:#FFFFFF"/>
				<stop  offset="1" style="stop-color:#000000"/>
			</linearGradient>
			
				<line fill="none" stroke="url(#SVGID_30_)" stroke-width="0.25" stroke-linecap="round" stroke-miterlimit="10" x1="28.903" y1="25.77" x2="37.14" y2="56.522"/>
			<linearGradient id="SVGID_31_" gradientUnits="userSpaceOnUse" x1="27.4541" y1="41.146" x2="38.5898" y2="41.146">
				<stop  offset="0" style="stop-color:#FFFFFF"/>
				<stop  offset="1" style="stop-color:#000000"/>
			</linearGradient>
			
				<line fill="none" stroke="url(#SVGID_31_)" stroke-width="0.25" stroke-linecap="round" stroke-miterlimit="10" x1="27.579" y1="26.188" x2="38.465" y2="56.104"/>
			<linearGradient id="SVGID_32_" gradientUnits="userSpaceOnUse" x1="26.1714" y1="41.146" x2="39.873" y2="41.146">
				<stop  offset="0" style="stop-color:#FFFFFF"/>
				<stop  offset="1" style="stop-color:#000000"/>
			</linearGradient>
			
				<line fill="none" stroke="url(#SVGID_32_)" stroke-width="0.25" stroke-linecap="round" stroke-miterlimit="10" x1="26.296" y1="26.719" x2="39.748" y2="55.573"/>
			<linearGradient id="SVGID_33_" gradientUnits="userSpaceOnUse" x1="24.9399" y1="41.146" x2="41.1055" y2="41.146">
				<stop  offset="0" style="stop-color:#FFFFFF"/>
				<stop  offset="1" style="stop-color:#000000"/>
			</linearGradient>
			
				<line fill="none" stroke="url(#SVGID_33_)" stroke-width="0.25" stroke-linecap="round" stroke-miterlimit="10" x1="25.065" y1="27.36" x2="40.98" y2="54.932"/>
			<linearGradient id="SVGID_34_" gradientUnits="userSpaceOnUse" x1="23.7686" y1="41.146" x2="42.2769" y2="41.146">
				<stop  offset="0" style="stop-color:#FFFFFF"/>
				<stop  offset="1" style="stop-color:#000000"/>
			</linearGradient>
			
				<line fill="none" stroke="url(#SVGID_34_)" stroke-width="0.25" stroke-linecap="round" stroke-miterlimit="10" x1="23.894" y1="28.106" x2="42.152" y2="54.186"/>
			<linearGradient id="SVGID_35_" gradientUnits="userSpaceOnUse" x1="22.6675" y1="41.146" x2="43.3784" y2="41.146">
				<stop  offset="0" style="stop-color:#FFFFFF"/>
				<stop  offset="1" style="stop-color:#000000"/>
			</linearGradient>
			
				<line fill="none" stroke="url(#SVGID_35_)" stroke-width="0.25" stroke-linecap="round" stroke-miterlimit="10" x1="22.792" y1="28.952" x2="43.253" y2="53.34"/>
			<linearGradient id="SVGID_36_" gradientUnits="userSpaceOnUse" x1="21.644" y1="41.145" x2="44.4023" y2="41.145">
				<stop  offset="0" style="stop-color:#FFFFFF"/>
				<stop  offset="1" style="stop-color:#000000"/>
			</linearGradient>
			
				<line fill="none" stroke="url(#SVGID_36_)" stroke-width="0.25" stroke-linecap="round" stroke-miterlimit="10" x1="21.769" y1="29.889" x2="44.277" y2="52.402"/>
			<linearGradient id="SVGID_37_" gradientUnits="userSpaceOnUse" x1="20.7056" y1="41.145" x2="45.3408" y2="41.145">
				<stop  offset="0" style="stop-color:#FFFFFF"/>
				<stop  offset="1" style="stop-color:#000000"/>
			</linearGradient>
			
				<line fill="none" stroke="url(#SVGID_37_)" stroke-width="0.25" stroke-linecap="round" stroke-miterlimit="10" x1="20.831" y1="30.913" x2="45.216" y2="51.377"/>
			<linearGradient id="SVGID_38_" gradientUnits="userSpaceOnUse" x1="19.8604" y1="41.145" x2="46.187" y2="41.145">
				<stop  offset="0" style="stop-color:#FFFFFF"/>
				<stop  offset="1" style="stop-color:#000000"/>
			</linearGradient>
			
				<line fill="none" stroke="url(#SVGID_38_)" stroke-width="0.25" stroke-linecap="round" stroke-miterlimit="10" x1="19.985" y1="32.013" x2="46.062" y2="50.276"/>
			<linearGradient id="SVGID_39_" gradientUnits="userSpaceOnUse" x1="19.1143" y1="41.145" x2="46.9336" y2="41.145">
				<stop  offset="0" style="stop-color:#FFFFFF"/>
				<stop  offset="1" style="stop-color:#000000"/>
			</linearGradient>
			
				<line fill="none" stroke="url(#SVGID_39_)" stroke-width="0.25" stroke-linecap="round" stroke-miterlimit="10" x1="19.239" y1="33.185" x2="46.809" y2="49.105"/>
			<linearGradient id="SVGID_40_" gradientUnits="userSpaceOnUse" x1="18.4722" y1="41.145" x2="47.5752" y2="41.145">
				<stop  offset="0" style="stop-color:#FFFFFF"/>
				<stop  offset="1" style="stop-color:#000000"/>
			</linearGradient>
			
				<line fill="none" stroke="url(#SVGID_40_)" stroke-width="0.25" stroke-linecap="round" stroke-miterlimit="10" x1="18.597" y1="34.417" x2="47.45" y2="47.873"/>
			<linearGradient id="SVGID_41_" gradientUnits="userSpaceOnUse" x1="17.9409" y1="41.145" x2="48.1064" y2="41.145">
				<stop  offset="0" style="stop-color:#FFFFFF"/>
				<stop  offset="1" style="stop-color:#000000"/>
			</linearGradient>
			
				<line fill="none" stroke="url(#SVGID_41_)" stroke-width="0.25" stroke-linecap="round" stroke-miterlimit="10" x1="18.066" y1="35.701" x2="47.981" y2="46.589"/>
			<linearGradient id="SVGID_42_" gradientUnits="userSpaceOnUse" x1="17.5234" y1="41.145" x2="48.5239" y2="41.145">
				<stop  offset="0" style="stop-color:#FFFFFF"/>
				<stop  offset="1" style="stop-color:#000000"/>
			</linearGradient>
			
				<line fill="none" stroke="url(#SVGID_42_)" stroke-width="0.25" stroke-linecap="round" stroke-miterlimit="10" x1="17.648" y1="37.025" x2="48.399" y2="45.264"/>
			<linearGradient id="SVGID_43_" gradientUnits="userSpaceOnUse" x1="17.2231" y1="41.145" x2="48.8247" y2="41.145">
				<stop  offset="0" style="stop-color:#FFFFFF"/>
				<stop  offset="1" style="stop-color:#000000"/>
			</linearGradient>
			
				<line fill="none" stroke="url(#SVGID_43_)" stroke-width="0.25" stroke-linecap="round" stroke-miterlimit="10" x1="17.348" y1="38.38" x2="48.7" y2="43.909"/>
			<linearGradient id="SVGID_44_" gradientUnits="userSpaceOnUse" x1="17.042" y1="41.145" x2="49.0054" y2="41.145">
				<stop  offset="0" style="stop-color:#FFFFFF"/>
				<stop  offset="1" style="stop-color:#000000"/>
			</linearGradient>
			
				<line fill="none" stroke="url(#SVGID_44_)" stroke-width="0.25" stroke-linecap="round" stroke-miterlimit="10" x1="17.167" y1="39.758" x2="48.88" y2="42.532"/>
		</g>
		<circle fill="none" stroke="#FFFFFF" stroke-width="1.4656" stroke-miterlimit="10" cx="33.02" cy="41.143" r="8.569"/>
		<circle fill="none" stroke="#FFFFFF" stroke-width="1.4656" stroke-miterlimit="10" cx="33.02" cy="41.143" r="8.569"/>
		<radialGradient id="SVGID_45_" cx="33.0195" cy="41.1431" r="8.5693" gradientUnits="userSpaceOnUse">
			<stop  offset="0" style="stop-color:#FFFFFF"/>
			<stop  offset="0.5912" style="stop-color:#00FF00"/>
		</radialGradient>
		<linearGradient id="SVGID_46_" gradientUnits="userSpaceOnUse" x1="23.9502" y1="41.1431" x2="42.0889" y2="41.1431">
			<stop  offset="0" style="stop-color:#FFFFFF"/>
			<stop  offset="1" style="stop-color:#000000"/>
		</linearGradient>
		<circle fill="url(#SVGID_45_)" stroke="url(#SVGID_46_)" stroke-miterlimit="10" cx="33.02" cy="41.143" r="8.569"/>
		<linearGradient id="SVGID_47_" gradientUnits="userSpaceOnUse" x1="24.6592" y1="41.1431" x2="41.3804" y2="41.1431">
			<stop  offset="0" style="stop-color:#000000"/>
			<stop  offset="1" style="stop-color:#FFFFFF"/>
		</linearGradient>
		<circle fill="none" stroke="url(#SVGID_47_)" stroke-width="0.5" stroke-miterlimit="10" cx="33.02" cy="41.143" r="8.111"/>
	</g>
	<g>
		<linearGradient id="SVGID_48_" gradientUnits="userSpaceOnUse" x1="75.9385" y1="41.1431" x2="114.0527" y2="41.1431">
			<stop  offset="0" style="stop-color:#FFFFFF"/>
			<stop  offset="1" style="stop-color:#231F20"/>
		</linearGradient>
		
			<circle fill="url(#SVGID_48_)" stroke="#231F20" stroke-width="0.3664" stroke-miterlimit="10" cx="94.996" cy="41.143" r="19.057"/>
		<radialGradient id="SVGID_49_" cx="94.9951" cy="41.1431" r="16.499" gradientUnits="userSpaceOnUse">
			<stop  offset="0" style="stop-color:#FFFFFF"/>
			<stop  offset="1" style="stop-color:#000000"/>
		</radialGradient>
		
			<circle fill="url(#SVGID_49_)" stroke="#FFFFFF" stroke-width="0.7328" stroke-miterlimit="10" cx="94.995" cy="41.143" r="16.499"/>
		<g>
			<linearGradient id="SVGID_50_" gradientUnits="userSpaceOnUse" x1="78.9512" y1="41.1431" x2="111.0371" y2="41.1431">
				<stop  offset="0" style="stop-color:#000000"/>
				<stop  offset="1" style="stop-color:#FFFFFF"/>
			</linearGradient>
			
				<line fill="none" stroke="url(#SVGID_50_)" stroke-width="0.25" stroke-linecap="round" stroke-miterlimit="10" x1="110.912" y1="41.143" x2="79.076" y2="41.143"/>
			<linearGradient id="SVGID_51_" gradientUnits="userSpaceOnUse" x1="79.0117" y1="41.1431" x2="110.9766" y2="41.1431">
				<stop  offset="0" style="stop-color:#000000"/>
				<stop  offset="1" style="stop-color:#FFFFFF"/>
			</linearGradient>
			
				<line fill="none" stroke="url(#SVGID_51_)" stroke-width="0.25" stroke-linecap="round" stroke-miterlimit="10" x1="110.852" y1="39.756" x2="79.137" y2="42.53"/>
			<linearGradient id="SVGID_52_" gradientUnits="userSpaceOnUse" x1="79.1929" y1="41.1431" x2="110.7949" y2="41.1431">
				<stop  offset="0" style="stop-color:#000000"/>
				<stop  offset="1" style="stop-color:#FFFFFF"/>
			</linearGradient>
			
				<line fill="none" stroke="url(#SVGID_52_)" stroke-width="0.25" stroke-linecap="round" stroke-miterlimit="10" x1="110.67" y1="38.379" x2="79.318" y2="43.908"/>
			<linearGradient id="SVGID_53_" gradientUnits="userSpaceOnUse" x1="79.4937" y1="41.144" x2="110.4951" y2="41.144">
				<stop  offset="0" style="stop-color:#000000"/>
				<stop  offset="1" style="stop-color:#FFFFFF"/>
			</linearGradient>
			
				<line fill="none" stroke="url(#SVGID_53_)" stroke-width="0.25" stroke-linecap="round" stroke-miterlimit="10" x1="110.37" y1="37.025" x2="79.619" y2="45.263"/>
			<linearGradient id="SVGID_54_" gradientUnits="userSpaceOnUse" x1="79.9106" y1="41.145" x2="110.0781" y2="41.145">
				<stop  offset="0" style="stop-color:#000000"/>
				<stop  offset="1" style="stop-color:#FFFFFF"/>
			</linearGradient>
			
				<line fill="none" stroke="url(#SVGID_54_)" stroke-width="0.25" stroke-linecap="round" stroke-miterlimit="10" x1="109.953" y1="35.701" x2="80.036" y2="46.588"/>
			<linearGradient id="SVGID_55_" gradientUnits="userSpaceOnUse" x1="80.4424" y1="41.144" x2="109.5459" y2="41.144">
				<stop  offset="0" style="stop-color:#000000"/>
				<stop  offset="1" style="stop-color:#FFFFFF"/>
			</linearGradient>
			
				<line fill="none" stroke="url(#SVGID_55_)" stroke-width="0.25" stroke-linecap="round" stroke-miterlimit="10" x1="109.421" y1="34.417" x2="80.567" y2="47.871"/>
			<linearGradient id="SVGID_56_" gradientUnits="userSpaceOnUse" x1="81.084" y1="41.145" x2="108.9053" y2="41.145">
				<stop  offset="0" style="stop-color:#000000"/>
				<stop  offset="1" style="stop-color:#FFFFFF"/>
			</linearGradient>
			
				<line fill="none" stroke="url(#SVGID_56_)" stroke-width="0.25" stroke-linecap="round" stroke-miterlimit="10" x1="108.78" y1="33.187" x2="81.209" y2="49.102"/>
			<linearGradient id="SVGID_57_" gradientUnits="userSpaceOnUse" x1="81.8301" y1="41.145" x2="108.1592" y2="41.145">
				<stop  offset="0" style="stop-color:#000000"/>
				<stop  offset="1" style="stop-color:#FFFFFF"/>
			</linearGradient>
			
				<line fill="none" stroke="url(#SVGID_57_)" stroke-width="0.25" stroke-linecap="round" stroke-miterlimit="10" x1="108.034" y1="32.016" x2="81.955" y2="50.274"/>
			<linearGradient id="SVGID_58_" gradientUnits="userSpaceOnUse" x1="82.6753" y1="41.145" x2="107.3145" y2="41.145">
				<stop  offset="0" style="stop-color:#000000"/>
				<stop  offset="1" style="stop-color:#FFFFFF"/>
			</linearGradient>
			
				<line fill="none" stroke="url(#SVGID_58_)" stroke-width="0.25" stroke-linecap="round" stroke-miterlimit="10" x1="107.189" y1="30.914" x2="82.8" y2="51.376"/>
			<linearGradient id="SVGID_59_" gradientUnits="userSpaceOnUse" x1="83.6138" y1="41.145" x2="106.377" y2="41.145">
				<stop  offset="0" style="stop-color:#000000"/>
				<stop  offset="1" style="stop-color:#FFFFFF"/>
			</linearGradient>
			
				<line fill="none" stroke="url(#SVGID_59_)" stroke-width="0.25" stroke-linecap="round" stroke-miterlimit="10" x1="106.252" y1="29.891" x2="83.739" y2="52.399"/>
			<linearGradient id="SVGID_60_" gradientUnits="userSpaceOnUse" x1="84.6382" y1="41.145" x2="105.3535" y2="41.145">
				<stop  offset="0" style="stop-color:#000000"/>
				<stop  offset="1" style="stop-color:#FFFFFF"/>
			</linearGradient>
			
				<line fill="none" stroke="url(#SVGID_60_)" stroke-width="0.25" stroke-linecap="round" stroke-miterlimit="10" x1="105.229" y1="28.953" x2="84.763" y2="53.337"/>
			<linearGradient id="SVGID_61_" gradientUnits="userSpaceOnUse" x1="85.7397" y1="41.145" x2="104.252" y2="41.145">
				<stop  offset="0" style="stop-color:#000000"/>
				<stop  offset="1" style="stop-color:#FFFFFF"/>
			</linearGradient>
			
				<line fill="none" stroke="url(#SVGID_61_)" stroke-width="0.25" stroke-linecap="round" stroke-miterlimit="10" x1="104.127" y1="28.107" x2="85.865" y2="54.183"/>
			<linearGradient id="SVGID_62_" gradientUnits="userSpaceOnUse" x1="86.9106" y1="41.145" x2="103.0801" y2="41.145">
				<stop  offset="0" style="stop-color:#000000"/>
				<stop  offset="1" style="stop-color:#FFFFFF"/>
			</linearGradient>
			
				<line fill="none" stroke="url(#SVGID_62_)" stroke-width="0.25" stroke-linecap="round" stroke-miterlimit="10" x1="102.955" y1="27.361" x2="87.036" y2="54.929"/>
			<linearGradient id="SVGID_63_" gradientUnits="userSpaceOnUse" x1="88.1426" y1="41.145" x2="101.8486" y2="41.145">
				<stop  offset="0" style="stop-color:#000000"/>
				<stop  offset="1" style="stop-color:#FFFFFF"/>
			</linearGradient>
			
				<line fill="none" stroke="url(#SVGID_63_)" stroke-width="0.25" stroke-linecap="round" stroke-miterlimit="10" x1="101.724" y1="26.719" x2="88.268" y2="55.571"/>
			<linearGradient id="SVGID_64_" gradientUnits="userSpaceOnUse" x1="89.4258" y1="41.145" x2="100.5664" y2="41.145">
				<stop  offset="0" style="stop-color:#000000"/>
				<stop  offset="1" style="stop-color:#FFFFFF"/>
			</linearGradient>
			
				<line fill="none" stroke="url(#SVGID_64_)" stroke-width="0.25" stroke-linecap="round" stroke-miterlimit="10" x1="100.441" y1="26.188" x2="89.551" y2="56.102"/>
			<linearGradient id="SVGID_65_" gradientUnits="userSpaceOnUse" x1="90.7505" y1="41.145" x2="99.2422" y2="41.145">
				<stop  offset="0" style="stop-color:#000000"/>
				<stop  offset="1" style="stop-color:#FFFFFF"/>
			</linearGradient>
			
				<line fill="none" stroke="url(#SVGID_65_)" stroke-width="0.25" stroke-linecap="round" stroke-miterlimit="10" x1="99.117" y1="25.77" x2="90.875" y2="56.521"/>
			<linearGradient id="SVGID_66_" gradientUnits="userSpaceOnUse" x1="92.1064" y1="41.145" x2="97.8867" y2="41.145">
				<stop  offset="0" style="stop-color:#000000"/>
				<stop  offset="1" style="stop-color:#FFFFFF"/>
			</linearGradient>
			
				<line fill="none" stroke="url(#SVGID_66_)" stroke-width="0.25" stroke-linecap="round" stroke-miterlimit="10" x1="97.762" y1="25.469" x2="92.231" y2="56.822"/>
			<linearGradient id="SVGID_67_" gradientUnits="userSpaceOnUse" x1="93.4829" y1="41.146" x2="96.5098" y2="41.146">
				<stop  offset="0" style="stop-color:#000000"/>
				<stop  offset="1" style="stop-color:#FFFFFF"/>
			</linearGradient>
			
				<line fill="none" stroke="url(#SVGID_67_)" stroke-width="0.25" stroke-linecap="round" stroke-miterlimit="10" x1="96.385" y1="25.289" x2="93.608" y2="57.003"/>
			<linearGradient id="SVGID_68_" gradientUnits="userSpaceOnUse" x1="94.8701" y1="41.145" x2="95.123" y2="41.145">
				<stop  offset="0" style="stop-color:#000000"/>
				<stop  offset="1" style="stop-color:#FFFFFF"/>
			</linearGradient>
			
				<line fill="none" stroke="url(#SVGID_68_)" stroke-width="0.25" stroke-linecap="round" stroke-miterlimit="10" x1="94.998" y1="25.227" x2="94.995" y2="57.063"/>
			<linearGradient id="SVGID_69_" gradientUnits="userSpaceOnUse" x1="93.4858" y1="41.146" x2="96.5078" y2="41.146">
				<stop  offset="0" style="stop-color:#000000"/>
				<stop  offset="1" style="stop-color:#FFFFFF"/>
			</linearGradient>
			
				<line fill="none" stroke="url(#SVGID_69_)" stroke-width="0.25" stroke-linecap="round" stroke-miterlimit="10" x1="93.611" y1="25.289" x2="96.383" y2="57.003"/>
			<linearGradient id="SVGID_70_" gradientUnits="userSpaceOnUse" x1="92.1094" y1="41.146" x2="97.8848" y2="41.146">
				<stop  offset="0" style="stop-color:#000000"/>
				<stop  offset="1" style="stop-color:#FFFFFF"/>
			</linearGradient>
			
				<line fill="none" stroke="url(#SVGID_70_)" stroke-width="0.25" stroke-linecap="round" stroke-miterlimit="10" x1="92.234" y1="25.469" x2="97.76" y2="56.823"/>
			<linearGradient id="SVGID_71_" gradientUnits="userSpaceOnUse" x1="90.7534" y1="41.146" x2="99.2402" y2="41.146">
				<stop  offset="0" style="stop-color:#000000"/>
				<stop  offset="1" style="stop-color:#FFFFFF"/>
			</linearGradient>
			
				<line fill="none" stroke="url(#SVGID_71_)" stroke-width="0.25" stroke-linecap="round" stroke-miterlimit="10" x1="90.878" y1="25.77" x2="99.115" y2="56.522"/>
			<linearGradient id="SVGID_72_" gradientUnits="userSpaceOnUse" x1="89.4297" y1="41.146" x2="100.5654" y2="41.146">
				<stop  offset="0" style="stop-color:#000000"/>
				<stop  offset="1" style="stop-color:#FFFFFF"/>
			</linearGradient>
			
				<line fill="none" stroke="url(#SVGID_72_)" stroke-width="0.25" stroke-linecap="round" stroke-miterlimit="10" x1="89.555" y1="26.188" x2="100.44" y2="56.104"/>
			<linearGradient id="SVGID_73_" gradientUnits="userSpaceOnUse" x1="88.147" y1="41.146" x2="101.8486" y2="41.146">
				<stop  offset="0" style="stop-color:#000000"/>
				<stop  offset="1" style="stop-color:#FFFFFF"/>
			</linearGradient>
			
				<line fill="none" stroke="url(#SVGID_73_)" stroke-width="0.25" stroke-linecap="round" stroke-miterlimit="10" x1="88.272" y1="26.719" x2="101.724" y2="55.573"/>
			<linearGradient id="SVGID_74_" gradientUnits="userSpaceOnUse" x1="86.9155" y1="41.146" x2="103.0811" y2="41.146">
				<stop  offset="0" style="stop-color:#000000"/>
				<stop  offset="1" style="stop-color:#FFFFFF"/>
			</linearGradient>
			
				<line fill="none" stroke="url(#SVGID_74_)" stroke-width="0.25" stroke-linecap="round" stroke-miterlimit="10" x1="87.041" y1="27.36" x2="102.956" y2="54.932"/>
			<linearGradient id="SVGID_75_" gradientUnits="userSpaceOnUse" x1="85.7441" y1="41.146" x2="104.252" y2="41.146">
				<stop  offset="0" style="stop-color:#000000"/>
				<stop  offset="1" style="stop-color:#FFFFFF"/>
			</linearGradient>
			
				<line fill="none" stroke="url(#SVGID_75_)" stroke-width="0.25" stroke-linecap="round" stroke-miterlimit="10" x1="85.869" y1="28.106" x2="104.127" y2="54.186"/>
			<linearGradient id="SVGID_76_" gradientUnits="userSpaceOnUse" x1="84.6431" y1="41.146" x2="105.3535" y2="41.146">
				<stop  offset="0" style="stop-color:#000000"/>
				<stop  offset="1" style="stop-color:#FFFFFF"/>
			</linearGradient>
			
				<line fill="none" stroke="url(#SVGID_76_)" stroke-width="0.25" stroke-linecap="round" stroke-miterlimit="10" x1="84.768" y1="28.952" x2="105.229" y2="53.34"/>
			<linearGradient id="SVGID_77_" gradientUnits="userSpaceOnUse" x1="83.6196" y1="41.145" x2="106.3779" y2="41.145">
				<stop  offset="0" style="stop-color:#000000"/>
				<stop  offset="1" style="stop-color:#FFFFFF"/>
			</linearGradient>
			
				<line fill="none" stroke="url(#SVGID_77_)" stroke-width="0.25" stroke-linecap="round" stroke-miterlimit="10" x1="83.745" y1="29.889" x2="106.253" y2="52.402"/>
			<linearGradient id="SVGID_78_" gradientUnits="userSpaceOnUse" x1="82.6812" y1="41.145" x2="107.3164" y2="41.145">
				<stop  offset="0" style="stop-color:#000000"/>
				<stop  offset="1" style="stop-color:#FFFFFF"/>
			</linearGradient>
			
				<line fill="none" stroke="url(#SVGID_78_)" stroke-width="0.25" stroke-linecap="round" stroke-miterlimit="10" x1="82.806" y1="30.913" x2="107.191" y2="51.377"/>
			<linearGradient id="SVGID_79_" gradientUnits="userSpaceOnUse" x1="81.8359" y1="41.145" x2="108.1621" y2="41.145">
				<stop  offset="0" style="stop-color:#000000"/>
				<stop  offset="1" style="stop-color:#FFFFFF"/>
			</linearGradient>
			
				<line fill="none" stroke="url(#SVGID_79_)" stroke-width="0.25" stroke-linecap="round" stroke-miterlimit="10" x1="81.961" y1="32.013" x2="108.037" y2="50.276"/>
			<linearGradient id="SVGID_80_" gradientUnits="userSpaceOnUse" x1="81.0898" y1="41.145" x2="108.9092" y2="41.145">
				<stop  offset="0" style="stop-color:#000000"/>
				<stop  offset="1" style="stop-color:#FFFFFF"/>
			</linearGradient>
			
				<line fill="none" stroke="url(#SVGID_80_)" stroke-width="0.25" stroke-linecap="round" stroke-miterlimit="10" x1="81.215" y1="33.185" x2="108.784" y2="49.105"/>
			<linearGradient id="SVGID_81_" gradientUnits="userSpaceOnUse" x1="80.4478" y1="41.145" x2="109.5508" y2="41.145">
				<stop  offset="0" style="stop-color:#000000"/>
				<stop  offset="1" style="stop-color:#FFFFFF"/>
			</linearGradient>
			
				<line fill="none" stroke="url(#SVGID_81_)" stroke-width="0.25" stroke-linecap="round" stroke-miterlimit="10" x1="80.573" y1="34.417" x2="109.426" y2="47.873"/>
			<linearGradient id="SVGID_82_" gradientUnits="userSpaceOnUse" x1="79.9165" y1="41.145" x2="110.082" y2="41.145">
				<stop  offset="0" style="stop-color:#000000"/>
				<stop  offset="1" style="stop-color:#FFFFFF"/>
			</linearGradient>
			
				<line fill="none" stroke="url(#SVGID_82_)" stroke-width="0.25" stroke-linecap="round" stroke-miterlimit="10" x1="80.042" y1="35.701" x2="109.957" y2="46.589"/>
			<linearGradient id="SVGID_83_" gradientUnits="userSpaceOnUse" x1="79.499" y1="41.145" x2="110.5" y2="41.145">
				<stop  offset="0" style="stop-color:#000000"/>
				<stop  offset="1" style="stop-color:#FFFFFF"/>
			</linearGradient>
			
				<line fill="none" stroke="url(#SVGID_83_)" stroke-width="0.25" stroke-linecap="round" stroke-miterlimit="10" x1="79.624" y1="37.025" x2="110.375" y2="45.264"/>
			<linearGradient id="SVGID_84_" gradientUnits="userSpaceOnUse" x1="79.1987" y1="41.145" x2="110.8008" y2="41.145">
				<stop  offset="0" style="stop-color:#000000"/>
				<stop  offset="1" style="stop-color:#FFFFFF"/>
			</linearGradient>
			
				<line fill="none" stroke="url(#SVGID_84_)" stroke-width="0.25" stroke-linecap="round" stroke-miterlimit="10" x1="79.324" y1="38.38" x2="110.676" y2="43.909"/>
			<linearGradient id="SVGID_85_" gradientUnits="userSpaceOnUse" x1="79.0176" y1="41.145" x2="110.9805" y2="41.145">
				<stop  offset="0" style="stop-color:#000000"/>
				<stop  offset="1" style="stop-color:#FFFFFF"/>
			</linearGradient>
			
				<line fill="none" stroke="url(#SVGID_85_)" stroke-width="0.25" stroke-linecap="round" stroke-miterlimit="10" x1="79.143" y1="39.758" x2="110.855" y2="42.532"/>
		</g>
		<circle fill="none" stroke="#FFFFFF" stroke-width="1.4656" stroke-miterlimit="10" cx="94.995" cy="41.143" r="8.569"/>
		<circle fill="none" stroke="#FFFFFF" stroke-width="1.4656" stroke-miterlimit="10" cx="94.995" cy="41.143" r="8.569"/>
		<radialGradient id="SVGID_86_" cx="94.9951" cy="41.1431" r="8.5693" gradientUnits="userSpaceOnUse">
			<stop  offset="0" style="stop-color:#FFFFFF"/>
			<stop  offset="0.5912" style="stop-color:#00FF00"/>
		</radialGradient>
		<linearGradient id="SVGID_87_" gradientUnits="userSpaceOnUse" x1="85.9258" y1="41.1431" x2="104.0645" y2="41.1431">
			<stop  offset="0" style="stop-color:#000000"/>
			<stop  offset="1" style="stop-color:#FFFFFF"/>
		</linearGradient>
		<circle fill="url(#SVGID_86_)" stroke="url(#SVGID_87_)" stroke-miterlimit="10" cx="94.995" cy="41.143" r="8.569"/>
		<linearGradient id="SVGID_88_" gradientUnits="userSpaceOnUse" x1="86.6348" y1="41.1431" x2="103.3555" y2="41.1431">
			<stop  offset="0" style="stop-color:#FFFFFF"/>
			<stop  offset="1" style="stop-color:#000000"/>
		</linearGradient>
		<circle fill="none" stroke="url(#SVGID_88_)" stroke-width="0.5" stroke-miterlimit="10" cx="94.995" cy="41.143" r="8.11"/>
	</g>
</g>
<g id="Layer_3" display="none">
	<g display="inline">
		<g>
			<linearGradient id="SVGID_89_" gradientUnits="userSpaceOnUse" x1="13.9629" y1="41.1431" x2="52.0767" y2="41.1431">
				<stop  offset="0" style="stop-color:#FFFFFF"/>
				<stop  offset="1" style="stop-color:#231F20"/>
			</linearGradient>
			
				<circle fill="url(#SVGID_89_)" stroke="#231F20" stroke-width="0.3664" stroke-miterlimit="10" cx="33.02" cy="41.143" r="19.057"/>
			<radialGradient id="SVGID_90_" cx="33.0195" cy="41.1431" r="16.499" gradientUnits="userSpaceOnUse">
				<stop  offset="0" style="stop-color:#FFFFFF"/>
				<stop  offset="1" style="stop-color:#000000"/>
			</radialGradient>
			
				<circle fill="url(#SVGID_90_)" stroke="#FFFFFF" stroke-width="0.7328" stroke-miterlimit="10" cx="33.02" cy="41.143" r="16.499"/>
			<circle fill="none" stroke="#FFFFFF" stroke-width="1.4656" stroke-miterlimit="10" cx="33.02" cy="41.143" r="8.569"/>
		</g>
		<g>
			<linearGradient id="SVGID_91_" gradientUnits="userSpaceOnUse" x1="75.9385" y1="41.1431" x2="114.0518" y2="41.1431">
				<stop  offset="0" style="stop-color:#FFFFFF"/>
				<stop  offset="1" style="stop-color:#231F20"/>
			</linearGradient>
			
				<circle fill="url(#SVGID_91_)" stroke="#231F20" stroke-width="0.3664" stroke-miterlimit="10" cx="94.995" cy="41.143" r="19.057"/>
			<radialGradient id="SVGID_92_" cx="94.9951" cy="41.1431" r="16.499" gradientUnits="userSpaceOnUse">
				<stop  offset="0" style="stop-color:#FFFFFF"/>
				<stop  offset="1" style="stop-color:#000000"/>
			</radialGradient>
			
				<circle fill="url(#SVGID_92_)" stroke="#FFFFFF" stroke-width="0.7328" stroke-miterlimit="10" cx="94.995" cy="41.143" r="16.499"/>
			<circle fill="none" stroke="#FFFFFF" stroke-width="1.4656" stroke-miterlimit="10" cx="94.995" cy="41.143" r="8.569"/>
		</g>
	</g>
</g>
</svg>
