<?xml version="1.0" encoding="utf-8"?>
<!-- Generator: Adobe Illustrator 16.0.0, SVG Export Plug-In . SVG Version: 6.00 Build 0)  -->
<!DOCTYPE svg PUBLIC "-//W3C//DTD SVG 1.1//EN" "http://www.w3.org/Graphics/SVG/1.1/DTD/svg11.dtd">
<svg version="1.1" id="Layer_1" xmlns="http://www.w3.org/2000/svg" xmlns:xlink="http://www.w3.org/1999/xlink" x="0px" y="0px"
	 width="10px" height="9.223px" viewBox="0 0 10 9.223" enable-background="new 0 0 10 9.223" xml:space="preserve">
<g id="Layer_1_1_" display="none">
	<g display="inline">
		<circle fill="#03CCF4" cx="86.346" cy="86.346" r="86.345"/>
		<g>
			<polyline fill="none" stroke="#FFFFFF" stroke-width="2" stroke-miterlimit="10" points="87.375,31.622 85.18,17.635 
				93.695,20.085 85.18,9.118 94.583,7.684 			"/>
			<g>
				<circle fill="#FFFFFF" cx="63.396" cy="58.284" r="8.383"/>
				<circle fill="#FFFFFF" cx="108.396" cy="58.284" r="8.383"/>
			</g>
			<circle fill="none" stroke="#FFFFFF" stroke-width="2" stroke-miterlimit="10" cx="97.396" cy="7.284" r="3.643"/>
			<g>
				<path fill="#FFFFFF" d="M31.73,115.417v-0.975c0-0.494,0.146-0.896,0.442-1.193l5.733-5.854c0.156-0.18,0.313-0.27,0.468-0.27
					c0.187,0,0.353,0.123,0.499,0.373s0.223,0.556,0.223,0.912c0,0.471-0.107,0.813-0.32,1.031l-5.362,5.477l5.364,5.441
					c0.213,0.24,0.318,0.596,0.318,1.063c0,0.359-0.074,0.664-0.223,0.914c-0.146,0.25-0.313,0.375-0.499,0.375
					c-0.144,0-0.3-0.09-0.468-0.271l-5.735-5.837C31.879,116.333,31.73,115.935,31.73,115.417z"/>
				<path fill="#FFFFFF" d="M49.75,107.203l-5.91,17.291c-0.092,0.26-0.236,0.391-0.439,0.391c-0.189,0-0.367-0.111-0.531-0.336
					s-0.247-0.512-0.247-0.858c0-0.31,0.06-0.64,0.173-0.983l5.914-17.271c0.1-0.271,0.25-0.41,0.457-0.41
					c0.186,0,0.357,0.105,0.521,0.32c0.164,0.217,0.246,0.496,0.246,0.846C49.934,106.516,49.872,106.854,49.75,107.203z"/>
				<path fill="#FFFFFF" d="M58.273,124.884h-1.455c-0.601,0-1.116-0.367-1.551-1.104c-0.434-0.737-0.648-1.625-0.648-2.661v-8.146
					h-0.745c-0.202,0-0.374-0.12-0.517-0.356c-0.143-0.238-0.211-0.537-0.211-0.896c0-0.35,0.069-0.645,0.211-0.889
					c0.143-0.244,0.313-0.367,0.517-0.367h0.765v-3.078c0-0.35,0.068-0.646,0.213-0.891c0.142-0.244,0.313-0.365,0.516-0.365
					c0.189,0,0.359,0.125,0.507,0.373c0.147,0.25,0.222,0.543,0.222,0.883v3.078h2.928c0.195,0,0.367,0.125,0.513,0.373
					c0.146,0.25,0.216,0.545,0.216,0.883c0,0.351-0.07,0.646-0.216,0.891c-0.146,0.245-0.313,0.366-0.513,0.366H56.08v8.146
					c0,0.34,0.072,0.633,0.221,0.883c0.147,0.248,0.322,0.373,0.524,0.373h1.42c0.387,0,0.646-0.359,0.771-1.084
					c0.127-0.724,0.371-1.082,0.734-1.082c0.214,0,0.391,0.121,0.523,0.365c0.135,0.242,0.205,0.551,0.205,0.92
					c0,0.756-0.207,1.512-0.621,2.264C59.441,124.507,58.916,124.884,58.273,124.884z"/>
				<path fill="#FFFFFF" d="M63.88,123.628v-11.912c0-0.35,0.07-0.648,0.212-0.902c0.145-0.254,0.313-0.381,0.518-0.381
					s0.375,0.124,0.516,0.373c0.143,0.249,0.212,0.553,0.212,0.91v1.568l1.188-1.748c0.49-0.72,0.97-1.076,1.438-1.076h1.064
					c0.602,0,1.115,0.369,1.543,1.104c0.427,0.738,0.641,1.625,0.641,2.661v0.673c0,0.357-0.07,0.662-0.212,0.911
					s-0.313,0.374-0.515,0.374c-0.202,0-0.375-0.122-0.519-0.366c-0.142-0.241-0.212-0.54-0.212-0.89v-0.702
					c0-0.351-0.068-0.646-0.212-0.892c-0.144-0.244-0.313-0.364-0.517-0.364h-0.943c-0.202,0-0.428,0.186-0.676,0.554l-2.07,3.096
					v7.01c0,0.351-0.07,0.646-0.216,0.891s-0.313,0.365-0.513,0.365c-0.2,0-0.373-0.121-0.517-0.365
					C63.95,124.274,63.88,123.978,63.88,123.628z"/>
				<path fill="#FFFFFF" d="M80.469,124.854h-4.436c-0.203,0-0.374-0.122-0.518-0.366c-0.143-0.242-0.211-0.539-0.211-0.89
					c0-0.341,0.069-0.634,0.211-0.884c0.144-0.248,0.313-0.373,0.518-0.373h1.488v-9.37h-1.474c-0.2,0-0.374-0.124-0.515-0.374
					c-0.143-0.248-0.213-0.543-0.213-0.883c0-0.351,0.072-0.648,0.213-0.902s0.313-0.381,0.515-0.381h2.22
					c0.201,0,0.373,0.127,0.517,0.381c0.141,0.254,0.213,0.557,0.213,0.902v10.627h1.455c0.2,0,0.377,0.121,0.522,0.365
					c0.146,0.244,0.221,0.541,0.221,0.892c0,0.349-0.069,0.646-0.217,0.89C80.836,124.732,80.667,124.854,80.469,124.854z
					 M77.506,103.914h0.766c0.201,0,0.373,0.123,0.516,0.367c0.141,0.242,0.213,0.537,0.213,0.889v1.076
					c0,0.351-0.072,0.648-0.213,0.902c-0.143,0.254-0.313,0.383-0.516,0.383h-0.779c-0.209,0-0.383-0.131-0.525-0.391
					c-0.141-0.26-0.208-0.549-0.201-0.867l0.017-1.104c0-0.352,0.071-0.646,0.214-0.892
					C77.133,104.037,77.307,103.914,77.506,103.914z"/>
				<path fill="#FFFFFF" d="M86.801,106.275v5.904l0.645-0.883c0.404-0.576,0.822-0.865,1.256-0.865h1.334
					c0.49,0,0.928,0.289,1.309,0.865l0.693,1.031c0.189,0.289,0.348,0.699,0.471,1.238c0.125,0.537,0.188,1.064,0.188,1.584v5.082
					c0,0.458-0.059,0.939-0.174,1.449c-0.112,0.508-0.248,0.882-0.396,1.121l-0.633,1.029c-0.162,0.271-0.396,0.513-0.693,0.727
					c-0.299,0.215-0.553,0.32-0.762,0.32H88.79c-0.604,0-1.269-0.584-1.979-1.748v0.492c0,0.351-0.072,0.646-0.215,0.891
					c-0.144,0.242-0.313,0.365-0.517,0.365s-0.375-0.123-0.517-0.365c-0.144-0.244-0.213-0.54-0.213-0.891v-17.354
					c0-0.35,0.071-0.646,0.217-0.891c0.146-0.242,0.313-0.365,0.513-0.365c0.203,0,0.375,0.123,0.517,0.365
					C86.732,105.628,86.801,105.927,86.801,106.275z M89.918,112.972h-1.004c-0.242,0-0.43,0.095-0.557,0.283l-1.309,1.929
					c-0.168,0.26-0.252,0.647-0.252,1.166v2.84c0,0.418,0.098,0.771,0.285,1.047l1.17,1.703c0.168,0.271,0.346,0.403,0.527,0.403
					h1.188c0.168,0,0.313-0.09,0.434-0.27l0.58-0.896c0.156-0.198,0.233-0.482,0.233-0.852v-5.291c0-0.42-0.077-0.738-0.233-0.957
					l-0.526-0.766C90.295,113.085,90.118,112.972,89.918,112.972z"/>
				<path fill="#FFFFFF" d="M103.355,115.184v3.034c0,0.339-0.069,0.634-0.217,0.882c-0.146,0.25-0.313,0.374-0.513,0.374H97.48
					v0.73c0,0.43,0.104,0.793,0.317,1.092l0.427,0.613c0.229,0.309,0.448,0.463,0.655,0.463h3.742c0.194,0,0.366,0.123,0.515,0.363
					c0.146,0.245,0.217,0.541,0.217,0.893c0,0.338-0.074,0.634-0.224,0.881c-0.146,0.25-0.313,0.375-0.508,0.375h-3.838
					c-0.255,0-0.521-0.092-0.804-0.276c-0.276-0.185-0.483-0.375-0.617-0.573l-0.649-0.986c-0.198-0.276-0.368-0.666-0.506-1.166
					c-0.138-0.498-0.203-0.955-0.203-1.375v-5.754c0-0.328,0.072-0.771,0.224-1.33c0.146-0.561,0.334-0.99,0.56-1.301l0.604-0.822
					c0.396-0.557,0.842-0.836,1.324-0.836h2.047c0.514,0,0.997,0.369,1.453,1.104l0.547,0.896
					C103.161,113.073,103.355,113.979,103.355,115.184z M97.5,114.99v1.94h4.418v-1.749c0-0.469-0.084-0.826-0.252-1.076
					l-0.424-0.645c-0.223-0.311-0.416-0.463-0.592-0.463h-1.826c-0.227,0-0.432,0.137-0.615,0.401l-0.424,0.612
					C97.596,114.268,97.5,114.591,97.5,114.99z"/>
				<path fill="#FFFFFF" d="M114.07,118.727v1.104c0,1.385-0.28,2.571-0.854,3.563c-0.566,0.991-1.254,1.487-2.057,1.487h-4.453
					V105.02h4.453c0.803,0,1.488,0.494,2.057,1.479c0.57,0.983,0.854,2.178,0.854,3.569v1.063c0,1.484-0.329,2.75-0.993,3.798
					C113.741,115.996,114.07,117.262,114.07,118.727z M112.583,111.104v-1.028c0-0.697-0.146-1.298-0.431-1.793
					c-0.282-0.5-0.629-0.748-1.024-0.748h-2.963v6.084h2.963c0.396,0,0.731-0.248,1.021-0.74
					C112.438,112.38,112.583,111.791,112.583,111.104z M112.583,119.832v-1.045c0-0.697-0.146-1.297-0.431-1.795
					c-0.282-0.498-0.629-0.746-1.024-0.746h-2.942v6.098h2.942c0.396,0,0.731-0.245,1.021-0.738
					C112.438,121.115,112.583,120.52,112.583,119.832z"/>
				<path fill="#FFFFFF" d="M124.79,114.99v5.307c0,1.125-0.31,2.166-0.922,3.123c-0.615,0.957-1.25,1.437-1.902,1.437h-1.707
					c-0.661,0-1.299-0.483-1.901-1.458c-0.606-0.973-0.91-2.004-0.91-3.102v-5.307c0-1.099,0.296-2.133,0.89-3.104
					c0.593-0.975,1.233-1.457,1.927-1.457h1.707c0.651-0.021,1.286,0.445,1.901,1.402C124.482,112.791,124.79,113.843,124.79,114.99
					z M118.917,115.093v5.082c0,0.459,0.099,0.822,0.285,1.094l0.547,0.809c0.121,0.18,0.291,0.271,0.51,0.271h1.688
					c0.248,0,0.477-0.154,0.678-0.465l0.439-0.674c0.182-0.236,0.271-0.57,0.271-1v-5.082c0-0.498-0.09-0.867-0.271-1.105
					l-0.51-0.702c-0.176-0.249-0.375-0.374-0.607-0.374h-1.506c-0.33,0-0.584,0.137-0.766,0.404l-0.492,0.73
					C119.004,114.337,118.917,114.675,118.917,115.093z"/>
				<path fill="#FFFFFF" d="M133.288,124.884h-1.455c-0.604,0-1.117-0.367-1.551-1.104c-0.437-0.737-0.65-1.625-0.65-2.661v-8.146
					h-0.741c-0.203,0-0.375-0.12-0.519-0.356c-0.144-0.238-0.213-0.537-0.213-0.896c0-0.35,0.069-0.645,0.213-0.889
					s0.313-0.367,0.519-0.367h0.762v-3.078c0-0.35,0.07-0.646,0.213-0.891c0.142-0.244,0.313-0.365,0.517-0.365
					c0.188,0,0.358,0.125,0.507,0.373c0.147,0.25,0.221,0.543,0.221,0.883v3.078h2.933c0.192,0,0.362,0.125,0.51,0.373
					c0.146,0.25,0.22,0.545,0.22,0.883c0,0.351-0.072,0.646-0.22,0.891c-0.146,0.245-0.313,0.366-0.51,0.366h-2.944v8.146
					c0,0.34,0.071,0.633,0.223,0.883c0.146,0.248,0.318,0.373,0.521,0.373h1.42c0.39,0,0.646-0.359,0.771-1.084
					c0.127-0.724,0.372-1.082,0.733-1.082c0.217,0,0.392,0.121,0.525,0.365c0.135,0.242,0.203,0.551,0.203,0.92
					c0,0.756-0.207,1.512-0.619,2.264C134.456,124.507,133.926,124.884,133.288,124.884z"/>
				<path fill="#FFFFFF" d="M146.438,114.442v0.978c0,0.508-0.143,0.908-0.422,1.199l-5.736,5.832
					c-0.168,0.178-0.324,0.268-0.479,0.268c-0.186,0-0.352-0.117-0.496-0.357c-0.146-0.236-0.223-0.543-0.223-0.91
					c0-0.479,0.107-0.826,0.326-1.049l5.354-5.479l-5.354-5.438c-0.221-0.238-0.326-0.602-0.326-1.08
					c0-0.367,0.07-0.675,0.223-0.912c0.146-0.24,0.313-0.359,0.496-0.359c0.146,0,0.305,0.09,0.479,0.27l5.736,5.85
					C146.295,113.533,146.438,113.933,146.438,114.442z"/>
			</g>
			<path fill="#FFFFFF" d="M162.521,109.55c0-7.111-6.594-13.633-17.562-18.713c-0.396-29.729-23.08-54.923-52.103-58.003
				c-0.989-2.609-3.508-4.469-6.465-4.469c-3.002,0-5.55,1.916-6.509,4.587C51.334,36.41,29.15,60.746,28.79,90.143
				C16.895,95.317,9.659,102.108,9.659,109.55c0,15.896,28.475,29.246,69.399,29.246c0.789,0,1.588-0.004,2.39-0.014
				c7.057-0.093,14.102-0.814,20.391-0.896l46.912,5.757l-0.924-16.804C157.061,121.994,162.521,116.02,162.521,109.55z
				 M108.396,45.737c6.932,0,12.547,5.617,12.547,12.548c0,6.93-5.615,12.547-12.547,12.547S95.85,65.214,95.85,58.284
				C95.85,51.354,101.465,45.737,108.396,45.737z M94.766,80.423c0.49-0.86,0.773-1.637,0.773-2.611
				c0-3.045-2.732-5.813-6.107-5.813h-6.109c-3.375,0-6.107,2.768-6.107,5.813c0,0.965,0.275,1.824,0.76,2.682
				c-1.425,0.059-2.852,0.064-4.25,0.151c-0.408-0.92-0.641-1.757-0.641-2.81c0-4.418,3.967-7.834,8.863-7.834h8.863
				c4.896,0,8.86,3.394,8.86,7.812c0,1.065-0.231,1.987-0.651,2.918C97.618,80.638,96.188,80.487,94.766,80.423z M97.209,83.333
				c-1.611,1.523-3.88,2.667-6.4,2.667h-8.863c-2.531,0-4.813-1.151-6.426-2.689c1.666-0.086,3.352-0.057,5.049-0.104
				C81.396,83.645,82.331,84,83.32,84h6.109c0.979,0,1.901-0.352,2.723-0.775C93.854,83.273,95.543,83.244,97.209,83.333z
				 M63.396,45.737c6.931,0,12.547,5.617,12.547,12.548c0,6.93-5.617,12.546-12.547,12.546c-6.931,0-12.545-5.617-12.545-12.547
				C50.852,51.353,56.467,45.737,63.396,45.737z M146.635,134.432l0.424,7.188l-37.713-5.838l-4.326-1.244
				c-4.771,0.063-9.396,0.336-13.861,0.601c-4.047,0.237-7.865,0.465-11.359,0.508c-0.807,0.013-1.607,0.019-2.408,0.019
				c-37.172,0-65.197-11.142-65.197-26.16C12.189,102.707,19.383,96,31.18,92h12.19c0.239,0,0.925-2.045,1.044-2.293
				c0.361-0.758,0.76-1.617,1.361-2.215c0.966-0.959,1.305,0.795,1.451,1.479c0.39,1.813,0.603,3.635,0.951,5.451
				c0.352,1.82,0.744,3.619,1.068,5.445c0.255,1.438,0.415,4.146,1.861-0.604c0.545-1.784,1.223-3.804,1.67-5.613
				c0.223-0.897,0.43-1.802,0.649-2.7c0.599-2.432,1.443-3.486,4.142,4.053c0.102,0.279,0.264,1.127,0.896,0.354l4.04-3.702
				c0,0,49.826,1.06,71.145,0.043c2.433-0.114,4.401,7.562,5.963-0.021c0.043-0.201,0.084-0.381,0.147-0.535
				c12.525,4.744,20.229,11.138,20.229,18.166c0,6.652-6.978,11.715-12.831,14.789l-1.453,0.781L146.635,134.432z"/>
		</g>
	</g>
</g>
<polyline fill="none" stroke="#FF0000" stroke-width="0.1308" stroke-miterlimit="10" points="5.084,1.864 4.94,0.948 5.497,1.108 
	4.94,0.391 5.556,0.298 "/>
<g>
	<circle fill="#FF0000" cx="3.515" cy="3.608" r="0.548"/>
	<circle fill="#FF0000" cx="6.46" cy="3.608" r="0.548"/>
</g>
<circle fill="none" stroke="#FF0000" stroke-width="0.1308" stroke-miterlimit="10" cx="5.739" cy="0.271" r="0.238"/>
<path fill="#FF0000" d="M10,6.961c0-0.467-0.433-0.893-1.147-1.227c-0.026-1.943-1.512-3.591-3.41-3.793
	C5.378,1.77,5.214,1.649,5.021,1.649c-0.196,0-0.363,0.125-0.426,0.301c-1.869,0.227-3.32,1.818-3.344,3.742
	C0.474,6.03,0,6.475,0,6.961C0,8,1.863,8.875,4.54,8.875c0.053,0,0.104,0,0.157-0.002C5.158,8.867,5.619,8.821,6.03,8.815
	L9.099,9.19L9.037,8.092C9.644,7.776,10,7.383,10,6.961z M6.46,2.787c0.453,0,0.819,0.366,0.819,0.819S6.913,4.427,6.46,4.427
	c-0.454,0-0.82-0.368-0.82-0.821S6.006,2.787,6.46,2.787z M5.567,5.055C5.601,5,5.618,4.95,5.618,4.885
	c0-0.199-0.18-0.379-0.4-0.379H4.819c-0.221,0-0.4,0.181-0.4,0.379c0,0.063,0.018,0.12,0.049,0.176
	C4.375,5.064,4.282,5.064,4.19,5.071C4.164,5.01,4.149,4.956,4.149,4.886c0-0.29,0.259-0.513,0.58-0.513h0.58
	c0.319,0,0.58,0.222,0.58,0.511c0,0.07-0.016,0.13-0.043,0.191C5.754,5.069,5.661,5.06,5.567,5.055z M5.728,5.246
	c-0.105,0.1-0.254,0.174-0.42,0.174h-0.58c-0.164,0-0.314-0.074-0.42-0.176C4.417,5.239,4.528,5.24,4.64,5.237
	c0.053,0.029,0.114,0.053,0.18,0.053h0.4c0.064,0,0.125-0.023,0.178-0.051C5.508,5.24,5.618,5.24,5.728,5.246z M3.515,2.787
	c0.455,0,0.821,0.366,0.821,0.819S3.97,4.428,3.515,4.428c-0.453,0-0.82-0.368-0.82-0.821C2.694,3.155,3.062,2.787,3.515,2.787z
	 M8.961,8.588l0.027,0.471L6.521,8.676l-0.282-0.08C5.927,8.6,5.624,8.617,5.332,8.635C5.067,8.651,4.817,8.664,4.588,8.668
	c-0.052,0-0.104,0-0.157,0c-2.432,0-4.265-0.729-4.265-1.711c0-0.445,0.47-0.883,1.242-1.146h0.798c0.016,0,0.061-0.133,0.068-0.148
	c0.022-0.049,0.049-0.105,0.089-0.145c0.063-0.063,0.085,0.051,0.095,0.098c0.025,0.117,0.04,0.236,0.063,0.355
	c0.023,0.119,0.049,0.236,0.07,0.355c0.016,0.094,0.027,0.27,0.122-0.039c0.035-0.117,0.08-0.25,0.109-0.367
	C2.836,5.86,2.851,5.803,2.864,5.742c0.04-0.158,0.094-0.229,0.271,0.266c0.006,0.018,0.016,0.074,0.059,0.023l0.264-0.242
	c0,0,3.26,0.068,4.654,0.002c0.158-0.008,0.287,0.496,0.391,0c0.003-0.016,0.005-0.025,0.01-0.035
	c0.818,0.311,1.322,0.729,1.322,1.188c0,0.436-0.456,0.768-0.839,0.969L8.899,7.963L8.961,8.588z"/>
<g>
	<path fill="#FF0000" d="M1.248,6.736V6.673c0-0.033,0.009-0.061,0.029-0.078L1.65,6.21c0.01-0.012,0.021-0.018,0.031-0.018
		c0.012,0,0.023,0.008,0.032,0.025c0.01,0.016,0.015,0.035,0.015,0.059c0,0.031-0.007,0.053-0.021,0.068L1.357,6.702l0.352,0.355
		C1.722,7.073,1.73,7.097,1.73,7.126c0,0.023-0.006,0.043-0.016,0.061C1.705,7.202,1.693,7.21,1.683,7.21
		c-0.01,0-0.021-0.006-0.03-0.018L1.277,6.81C1.258,6.798,1.248,6.771,1.248,6.736z"/>
	<path fill="#FF0000" d="M8.752,6.673v0.063c0,0.033-0.012,0.059-0.028,0.078L8.348,7.197c-0.011,0.01-0.021,0.018-0.029,0.018
		c-0.013,0-0.023-0.01-0.033-0.023C8.275,7.175,8.271,7.156,8.271,7.13c0-0.031,0.008-0.055,0.021-0.068l0.351-0.357L8.292,6.349
		C8.277,6.333,8.271,6.31,8.271,6.279c0-0.023,0.004-0.045,0.014-0.061c0.011-0.016,0.021-0.021,0.033-0.021
		c0.01,0,0.02,0.004,0.029,0.018l0.376,0.383C8.742,6.613,8.752,6.64,8.752,6.673z"/>
	<path fill="none" stroke="#FF0000" stroke-width="0.2" stroke-linecap="round" stroke-linejoin="round" stroke-miterlimit="10" d="
		M1.73,6.705c0,0,3.478,2.253,6.541-0.037"/>
</g>
</svg>
