<?xml version="1.0" encoding="utf-8"?>
<!-- Generator: Adobe Illustrator 16.0.0, SVG Export Plug-In . SVG Version: 6.00 Build 0)  -->
<!DOCTYPE svg PUBLIC "-//W3C//DTD SVG 1.1//EN" "http://www.w3.org/Graphics/SVG/1.1/DTD/svg11.dtd">
<svg version="1.1" id="Layer_1" xmlns="http://www.w3.org/2000/svg" xmlns:xlink="http://www.w3.org/1999/xlink" x="0px" y="0px"
	 width="624px" height="624px" viewBox="0 0 624 624" enable-background="new 0 0 624 624" xml:space="preserve">
<path fill="#FFFFFF" d="M609.931,14.079c18.764,18.763,18.752,49.15,0.011,67.893L379.893,312.01l230.049,229.02
	c18.763,18.764,18.731,49.131-0.011,67.872c-18.742,18.742-49.108,18.773-67.872,0.011L312.01,379.893L81.952,608.912
	c-18.742,18.741-49.129,18.753-67.893-0.011c-18.764-18.764-18.731-49.13,0.011-67.871l230.058-229.02L14.07,81.952
	C-4.693,63.189-4.683,32.801,14.059,14.059C32.801-4.683,63.189-4.694,81.952,14.07l230.059,230.059L542.06,14.089
	C560.822-4.695,591.157-4.695,609.931,14.079z"/>
</svg>
